<?xml version="1.0" encoding="utf-8" standalone="no"?>
<!DOCTYPE svg PUBLIC "-//W3C//DTD SVG 1.1//EN"
  "http://www.w3.org/Graphics/SVG/1.1/DTD/svg11.dtd">
<!-- Created with matplotlib (https://matplotlib.org/) -->
<svg height="256.32pt" version="1.1" viewBox="0 0 619.2 256.32" width="619.2pt" xmlns="http://www.w3.org/2000/svg" xmlns:xlink="http://www.w3.org/1999/xlink">
 <defs>
  <style type="text/css">
*{stroke-linecap:butt;stroke-linejoin:round;}
  </style>
 </defs>
 <g id="figure_1">
  <g id="patch_1">
   <path d="M 0 256.32 
L 619.2 256.32 
L 619.2 0 
L 0 0 
z
" style="fill:#ffffff;"/>
  </g>
  <g id="axes_1">
   <g id="patch_2">
    <path d="M 7.2 249.12 
L 612 249.12 
L 612 7.2 
L 7.2 7.2 
z
" style="fill:#ffffff;"/>
   </g>
   <g id="line2d_1">
    <path clip-path="url(#pec50b97ecb)" d="M 36 55.584 
L 64.8 87.84 
L 122.4 87.84 
L 180 87.84 
L 237.6 87.84 
L 266.4 144.288 
L 289.44 168.48 
L 329.76 168.48 
L 352.8 144.288 
L 381.6 87.84 
L 439.2 87.84 
L 496.8 87.84 
L 554.4 87.84 
L 583.2 55.584 
" style="fill:none;stroke:#000000;stroke-linecap:square;stroke-width:2;"/>
   </g>
   <g id="PathCollection_1">
    <defs>
     <path d="M 0 5 
C 1.326016 5 2.597899 4.473168 3.535534 3.535534 
C 4.473168 2.597899 5 1.326016 5 0 
C 5 -1.326016 4.473168 -2.597899 3.535534 -3.535534 
C 2.597899 -4.473168 1.326016 -5 0 -5 
C -1.326016 -5 -2.597899 -4.473168 -3.535534 -3.535534 
C -4.473168 -2.597899 -5 -1.326016 -5 0 
C -5 1.326016 -4.473168 2.597899 -3.535534 3.535534 
C -2.597899 4.473168 -1.326016 5 0 5 
z
" id="C0_0_0e4c501d51"/>
    </defs>
    <g clip-path="url(#pec50b97ecb)">
     <use x="36" xlink:href="#C0_0_0e4c501d51" y="55.584"/>
    </g>
    <g clip-path="url(#pec50b97ecb)">
     <use x="64.8" xlink:href="#C0_0_0e4c501d51" y="87.84"/>
    </g>
    <g clip-path="url(#pec50b97ecb)">
     <use x="122.4" xlink:href="#C0_0_0e4c501d51" y="87.84"/>
    </g>
    <g clip-path="url(#pec50b97ecb)">
     <use x="180" xlink:href="#C0_0_0e4c501d51" y="87.84"/>
    </g>
    <g clip-path="url(#pec50b97ecb)">
     <use x="237.6" xlink:href="#C0_0_0e4c501d51" y="87.84"/>
    </g>
    <g clip-path="url(#pec50b97ecb)">
     <use x="266.4" xlink:href="#C0_0_0e4c501d51" y="144.288"/>
    </g>
    <g clip-path="url(#pec50b97ecb)">
     <use x="289.44" xlink:href="#C0_0_0e4c501d51" y="168.48"/>
    </g>
    <g clip-path="url(#pec50b97ecb)">
     <use x="329.76" xlink:href="#C0_0_0e4c501d51" y="168.48"/>
    </g>
    <g clip-path="url(#pec50b97ecb)">
     <use x="352.8" xlink:href="#C0_0_0e4c501d51" y="144.288"/>
    </g>
    <g clip-path="url(#pec50b97ecb)">
     <use x="381.6" xlink:href="#C0_0_0e4c501d51" y="87.84"/>
    </g>
    <g clip-path="url(#pec50b97ecb)">
     <use x="439.2" xlink:href="#C0_0_0e4c501d51" y="87.84"/>
    </g>
    <g clip-path="url(#pec50b97ecb)">
     <use x="496.8" xlink:href="#C0_0_0e4c501d51" y="87.84"/>
    </g>
    <g clip-path="url(#pec50b97ecb)">
     <use x="554.4" xlink:href="#C0_0_0e4c501d51" y="87.84"/>
    </g>
    <g clip-path="url(#pec50b97ecb)">
     <use x="583.2" xlink:href="#C0_0_0e4c501d51" y="55.584"/>
    </g>
   </g>
   <g id="line2d_2">
    <path clip-path="url(#pec50b97ecb)" d="M 36 55.584 
L 583.2 55.584 
" style="fill:none;stroke:#0000ff;stroke-linecap:square;stroke-width:2;"/>
   </g>
  </g>
 </g>
 <defs>
  <clipPath id="pec50b97ecb">
   <rect height="241.92" width="604.8" x="7.2" y="7.2"/>
  </clipPath>
 </defs>
</svg>
