<?xml version="1.0" encoding="utf-8" standalone="no"?>
<!DOCTYPE svg PUBLIC "-//W3C//DTD SVG 1.1//EN"
  "http://www.w3.org/Graphics/SVG/1.1/DTD/svg11.dtd">
<!-- Created with matplotlib (https://matplotlib.org/) -->
<svg height="283.2pt" version="1.1" viewBox="0 0 417.6 283.2" width="417.6pt" xmlns="http://www.w3.org/2000/svg" xmlns:xlink="http://www.w3.org/1999/xlink">
 <defs>
  <style type="text/css">
*{stroke-linecap:butt;stroke-linejoin:round;}
  </style>
 </defs>
 <g id="figure_1">
  <g id="patch_1">
   <path d="M 0 283.2 
L 417.6 283.2 
L 417.6 -0 
L 0 -0 
z
" style="fill:#ffffff;"/>
  </g>
  <g id="axes_1">
   <g id="patch_2">
    <path d="M 7.2 276 
L 410.4 276 
L 410.4 7.2 
L 7.2 7.2 
z
" style="fill:#ffffff;"/>
   </g>
   <g id="line2d_1">
    <path clip-path="url(#p2f811eaa2a)" d="M 64.8 96.8 
L 122.4 159.52 
L 168.48 186.4 
L 249.12 186.4 
L 295.2 159.52 
L 352.8 96.8 
" style="fill:none;stroke:#000000;stroke-linecap:square;stroke-width:2;"/>
   </g>
   <g id="PathCollection_1">
    <defs>
     <path d="M 0 5 
C 1.326016 5 2.597899 4.473168 3.535534 3.535534 
C 4.473168 2.597899 5 1.326016 5 0 
C 5 -1.326016 4.473168 -2.597899 3.535534 -3.535534 
C 2.597899 -4.473168 1.326016 -5 0 -5 
C -1.326016 -5 -2.597899 -4.473168 -3.535534 -3.535534 
C -4.473168 -2.597899 -5 -1.326016 -5 0 
C -5 1.326016 -4.473168 2.597899 -3.535534 3.535534 
C -2.597899 4.473168 -1.326016 5 0 5 
z
" id="C0_0_aa58851ec7"/>
    </defs>
    <g clip-path="url(#p2f811eaa2a)">
     <use x="64.8" xlink:href="#C0_0_aa58851ec7" y="96.8"/>
    </g>
    <g clip-path="url(#p2f811eaa2a)">
     <use x="122.4" xlink:href="#C0_0_aa58851ec7" y="159.52"/>
    </g>
    <g clip-path="url(#p2f811eaa2a)">
     <use x="168.48" xlink:href="#C0_0_aa58851ec7" y="186.4"/>
    </g>
    <g clip-path="url(#p2f811eaa2a)">
     <use x="249.12" xlink:href="#C0_0_aa58851ec7" y="186.4"/>
    </g>
    <g clip-path="url(#p2f811eaa2a)">
     <use x="295.2" xlink:href="#C0_0_aa58851ec7" y="159.52"/>
    </g>
    <g clip-path="url(#p2f811eaa2a)">
     <use x="352.8" xlink:href="#C0_0_aa58851ec7" y="96.8"/>
    </g>
   </g>
   <g id="line2d_2">
    <path clip-path="url(#p2f811eaa2a)" d="M 64.8 96.8 
L 352.8 96.8 
" style="fill:none;stroke:#0000ff;stroke-linecap:square;stroke-width:2;"/>
   </g>
  </g>
 </g>
 <defs>
  <clipPath id="p2f811eaa2a">
   <rect height="268.8" width="403.2" x="7.2" y="7.2"/>
  </clipPath>
 </defs>
</svg>
