<?xml version="1.0" encoding="UTF-8" standalone="no"?>
<!-- Created with matplotlib (https://matplotlib.org/) -->

<svg
   xmlns:dc="http://purl.org/dc/elements/1.1/"
   xmlns:cc="http://creativecommons.org/ns#"
   xmlns:rdf="http://www.w3.org/1999/02/22-rdf-syntax-ns#"
   xmlns:svg="http://www.w3.org/2000/svg"
   xmlns="http://www.w3.org/2000/svg"
   xmlns:xlink="http://www.w3.org/1999/xlink"
   xmlns:sodipodi="http://sodipodi.sourceforge.net/DTD/sodipodi-0.dtd"
   xmlns:inkscape="http://www.inkscape.org/namespaces/inkscape"
   height="127.56265pt"
   version="1.1"
   viewBox="0 0 326.1954 127.56265"
   width="326.1954pt"
   id="svg53"
   sodipodi:docname="sect1+tex.svg"
   inkscape:version="0.92.3 (2405546, 2018-03-11)"
   inkscape:export-filename="C:\Users\a6448\Dropbox\Equation\HydraulicsTips-in-CivilEngineer\sect1.png"
   inkscape:export-xdpi="450"
   inkscape:export-ydpi="450">
  <sodipodi:namedview
     pagecolor="#ffffff"
     bordercolor="#666666"
     borderopacity="1"
     objecttolerance="10"
     gridtolerance="10"
     guidetolerance="10"
     inkscape:pageopacity="1"
     inkscape:pageshadow="2"
     inkscape:window-width="1920"
     inkscape:window-height="1137"
     id="namedview55"
     showgrid="false"
     inkscape:zoom="1.7677669"
     inkscape:cx="217.49146"
     inkscape:cy="79.906654"
     inkscape:window-x="-8"
     inkscape:window-y="-1"
     inkscape:window-maximized="1"
     inkscape:current-layer="svg53"
     inkscape:pagecheckerboard="true" />
  <metadata
     id="metadata57">
    <rdf:RDF>
      <cc:Work
         rdf:about="">
        <dc:format>image/svg+xml</dc:format>
        <dc:type
           rdf:resource="http://purl.org/dc/dcmitype/StillImage" />
        <dc:title></dc:title>
      </cc:Work>
    </rdf:RDF>
  </metadata>
  <defs
     id="defs4"
     style="stroke-linecap:butt;stroke-linejoin:round">
    <style
       type="text/css"
       id="style2">
*{stroke-linecap:butt;stroke-linejoin:round;}
  </style>
  </defs>
  <g
     id="figure_1"
     inkscape:export-xdpi="450"
     inkscape:export-ydpi="450"
     style="stroke-linecap:butt;stroke-linejoin:round"
     transform="translate(-50.710808,-77.79262)">
    <g
       id="axes_1"
       style="stroke-linecap:butt;stroke-linejoin:round">
      <g
         id="patch_2"
         style="stroke-linecap:butt;stroke-linejoin:round" />
      <g
         id="line2d_1"
         style="stroke-linecap:butt;stroke-linejoin:round">
        <path
           clip-path="url(#p2f811eaa2a)"
           d="m 64.8,96.8 57.6,62.72 46.08,26.88 h 80.64 L 295.2,159.52 352.8,96.8"
           style="fill:none;stroke:#000000;stroke-width:2;stroke-linecap:square;stroke-linejoin:round"
           id="path12"
           inkscape:connector-curvature="0" />
      </g>
      <g
         id="PathCollection_1"
         style="stroke-linecap:butt;stroke-linejoin:round">
        <defs
           id="defs16">
          <path
             d="M 0,5 C 1.326016,5 2.597899,4.473168 3.535534,3.535534 4.473168,2.597899 5,1.326016 5,0 5,-1.326016 4.473168,-2.597899 3.535534,-3.535534 2.597899,-4.473168 1.326016,-5 0,-5 -1.326016,-5 -2.597899,-4.473168 -3.535534,-3.535534 -4.473168,-2.597899 -5,-1.326016 -5,0 -5,1.326016 -4.473168,2.597899 -3.535534,3.535534 -2.597899,4.473168 -1.326016,5 0,5 Z"
             id="C0_0_aa58851ec7"
             inkscape:connector-curvature="0"
             style="stroke-linecap:butt;stroke-linejoin:round" />
        </defs>
        <g
           clip-path="url(#p2f811eaa2a)"
           id="g20"
           style="stroke-linecap:butt;stroke-linejoin:round">
          <use
             x="64.800003"
             xlink:href="#C0_0_aa58851ec7"
             y="96.800003"
             id="use18"
             style="stroke-linecap:butt;stroke-linejoin:round"
             width="100%"
             height="100%" />
        </g>
        <g
           clip-path="url(#p2f811eaa2a)"
           id="g24"
           style="stroke-linecap:butt;stroke-linejoin:round">
          <use
             x="122.4"
             xlink:href="#C0_0_aa58851ec7"
             y="159.52"
             id="use22"
             style="stroke-linecap:butt;stroke-linejoin:round"
             width="100%"
             height="100%" />
        </g>
        <g
           clip-path="url(#p2f811eaa2a)"
           id="g28"
           style="stroke-linecap:butt;stroke-linejoin:round">
          <use
             x="168.48"
             xlink:href="#C0_0_aa58851ec7"
             y="186.39999"
             id="use26"
             style="stroke-linecap:butt;stroke-linejoin:round"
             width="100%"
             height="100%" />
        </g>
        <g
           clip-path="url(#p2f811eaa2a)"
           id="g32"
           style="stroke-linecap:butt;stroke-linejoin:round">
          <use
             x="249.12"
             xlink:href="#C0_0_aa58851ec7"
             y="186.39999"
             id="use30"
             style="stroke-linecap:butt;stroke-linejoin:round"
             width="100%"
             height="100%" />
        </g>
        <g
           clip-path="url(#p2f811eaa2a)"
           id="g36"
           style="stroke-linecap:butt;stroke-linejoin:round">
          <use
             x="295.20001"
             xlink:href="#C0_0_aa58851ec7"
             y="159.52"
             id="use34"
             style="stroke-linecap:butt;stroke-linejoin:round"
             width="100%"
             height="100%" />
        </g>
        <g
           clip-path="url(#p2f811eaa2a)"
           id="g40"
           style="stroke-linecap:butt;stroke-linejoin:round">
          <use
             x="352.79999"
             xlink:href="#C0_0_aa58851ec7"
             y="96.800003"
             id="use38"
             style="stroke-linecap:butt;stroke-linejoin:round"
             width="100%"
             height="100%" />
        </g>
      </g>
      <g
         id="line2d_2"
         style="stroke-linecap:butt;stroke-linejoin:round">
        <path
           clip-path="url(#p2f811eaa2a)"
           d="m 64.8,96.8 h 288"
           style="fill:none;stroke:#0000ff;stroke-width:2;stroke-linecap:square;stroke-linejoin:round"
           id="path43"
           inkscape:connector-curvature="0" />
      </g>
    </g>
  </g>
  <defs
     id="defs51">
    <clipPath
       id="p2f811eaa2a"
       style="stroke-linecap:butt;stroke-linejoin:round">
      <rect
         height="268.79999"
         width="403.20001"
         x="7.1999998"
         y="7.1999998"
         id="rect48"
         style="stroke-linecap:butt;stroke-linejoin:round" />
    </clipPath>
  </defs>
  <g
     transform="translate(-77.110809,-55.292619)"
     id="equation_00"
     style="fill:#000000;stroke-linecap:butt;stroke-linejoin:round"
     title="$P(L_1,Z_1)$">
    <defs
       id="defs903">
      <path
         style="stroke-linecap:butt;stroke-linejoin:round"
         inkscape:connector-curvature="0"
         d="m 3.29763,2.39103 c 0,-0.02988 0,-0.04981 -0.16936,-0.21917 -1.24533,-1.255297 -1.56414,-3.138236 -1.56414,-4.66252 0,-1.7335 0.37858,-3.467 1.60399,-4.71233 0.12951,-0.11955 0.12951,-0.13948 0.12951,-0.16936 0,-0.06974 -0.03985,-0.09963 -0.09962,-0.09963 -0.09963,0 -0.99627,0.67746 -1.58406,1.94271 -0.5081,1.0959 -0.627649,2.20175 -0.627649,3.03861 0,0.77709 0.109589,1.982565 0.657539,3.108344 0.59775,1.225406 1.45454,1.872976 1.55417,1.872976 0.05977,0 0.09962,-0.02989 0.09962,-0.09963 z"
         id="equation_00_00" />
      <path
         style="stroke-linecap:butt;stroke-linejoin:round"
         inkscape:connector-curvature="0"
         d="m 2.8792,-2.49066 c 0,-0.77709 -0.10959,-1.98257 -0.65753,-3.10834 -0.59776,-1.22541 -1.454547,-1.87298 -1.554173,-1.87298 -0.059776,0 -0.099627,0.03985 -0.099627,0.09963 0,0.02988 0,0.04981 0.189291,0.22914 0.976339,0.9863 1.544209,2.57036 1.544209,4.65255 0,1.703611 -0.36862,3.457036 -1.603985,4.71233 C 0.56787,2.34122 0.56787,2.36115 0.56787,2.39103 c 0,0.05978 0.039851,0.09963 0.099627,0.09963 0.099626,0 0.996263,-0.67746 1.584063,-1.942715 C 2.75965,-0.547945 2.8792,-1.6538 2.8792,-2.49066 Z"
         id="equation_00_01" />
      <path
         style="stroke-linecap:butt;stroke-linejoin:round"
         inkscape:connector-curvature="0"
         d="M 2.02242,-0.00996264 C 2.02242,-0.667497 1.77335,-1.05604 1.38481,-1.05604 c -0.32877,0 -0.528023,0.249066 -0.528023,0.52802 C 0.856787,-0.259029 1.05604,0 1.38481,0 1.50436,0 1.63387,-0.0398506 1.7335,-0.129514 1.76339,-0.14944 1.77335,-0.159402 1.78331,-0.159402 c 0.00996,0 0.01993,0.009962 0.01993,0.14943936 C 1.80324,0.727273 1.45455,1.32503 1.12578,1.6538 1.01619,1.76339 1.01619,1.78331 1.01619,1.8132 c 0,0.06974 0.04981,0.10959 0.09963,0.10959 0.10958,0 0.9066,-0.76712 0.9066,-1.93275264 z"
         id="equation_00_02" />
      <path
         style="stroke-linecap:butt;stroke-linejoin:round"
         inkscape:connector-curvature="0"
         d="m 3.72603,-6.0274 c 0.08966,-0.35865 0.11955,-0.46824 1.05604,-0.46824 0.29888,0 0.37858,0 0.37858,-0.18929 0,-0.11955 -0.10959,-0.11955 -0.1594,-0.11955 -0.32877,0 -1.14571,0.02988 -1.47448,0.02988 -0.29887,0 -1.02615,-0.02988 -1.32503,-0.02988 -0.06974,0 -0.18929,0 -0.18929,0.19925 0,0.10959 0.08967,0.10959 0.27896,0.10959 0.01992,0 0.20921,0 0.37858,0.01992 0.17933,0.01993 0.26899,0.02989 0.26899,0.15941 0,0.03985 -0.00996,0.06973 -0.03985,0.18929 l -1.335,5.349934 c -0.09962,0.388543 -0.11955,0.468244 -0.906596,0.468244 -0.169365,0 -0.268991,0 -0.268991,0.199253 C 0.388543,0 0.478207,0 0.657534,0 H 5.27024 C 5.50934,0 5.5193,0 5.57908,-0.169365 L 6.36613,-2.3213 c 0.03985,-0.10958 0.03985,-0.12951 0.03985,-0.13947 0,-0.03985 -0.02989,-0.10959 -0.11955,-0.10959 -0.08966,0 -0.09963,0.04981 -0.16937,0.20921 -0.33873,0.91657 -0.77708,2.052308 -2.50062,2.052308 H 2.67995 c -0.13948,0 -0.1594,0 -0.21918,-0.009962 -0.09962,-0.009963 -0.12951,-0.019926 -0.12951,-0.099627 0,-0.029888 0,-0.049813 0.04981,-0.229141 z"
         id="equation_00_03" />
      <path
         style="stroke-linecap:butt;stroke-linejoin:round"
         inkscape:connector-curvature="0"
         d="m 3.01868,-3.14819 h 1.69365 c 1.41469,0 2.7995,-1.03612 2.7995,-2.15193 0,-0.76713 -0.65753,-1.50436 -1.96264,-1.50436 H 2.3213 c -0.1893,0 -0.29888,0 -0.29888,0.18929 0,0.11955 0.08966,0.11955 0.28891,0.11955 0.12952,0 0.30884,0.00996 0.4284,0.01992 0.1594,0.01993 0.21917,0.04982 0.21917,0.15941 0,0.03985 -0.00996,0.06973 -0.03985,0.18929 l -1.33499,5.349934 c -0.09963,0.388543 -0.11955,0.468244 -0.9066,0.468244 -0.169365,0 -0.278954,0 -0.278954,0.18929 C 0.398506,0 0.518057,0 0.547945,0 0.826899,0 1.53425,-0.0298879 1.8132,-0.0298879 c 0.20922,0 0.42839,0.0099626 0.63761,0.0099626 C 2.66999,-0.0199253 2.88917,0 3.09838,0 c 0.06974,0 0.19925,0 0.19925,-0.199253 0,-0.109589 -0.08966,-0.109589 -0.27895,-0.109589 -0.36862,0 -0.64757,0 -0.64757,-0.179327 0,-0.059776 0.01992,-0.109589 0.02989,-0.169365 z m 0.71731,-2.96887 c 0.08966,-0.34869 0.10959,-0.37858 0.53798,-0.37858 h 0.95642 c 0.8269,0 1.35492,0.26899 1.35492,0.95641 0,0.38855 -0.19926,1.24533 -0.5878,1.60399 -0.49813,0.44832 -1.09589,0.52802 -1.53425,0.52802 H 3.05853 Z"
         id="equation_00_04" />
      <path
         style="stroke-linecap:butt;stroke-linejoin:round"
         inkscape:connector-curvature="0"
         d="m 7.1731,-6.56538 c 0.00996,-0.03985 0.02989,-0.08966 0.02989,-0.14944 0,-0.08966 -0.04981,-0.08966 -0.24907,-0.08966 H 2.74969 c -0.2391,0 -0.24907,0.00996 -0.30884,0.19925 L 1.8929,-4.81196 c -0.01992,0.04982 -0.02989,0.11956 -0.02989,0.13948 0,0.00996 0,0.10959 0.11956,0.10959 0.08966,0 0.10958,-0.06974 0.12951,-0.09963 0.37858,-1.17559 0.89664,-1.83312 2.45081,-1.83312 H 6.1868 l -5.569116,6.226649 c 0,0.009962 -0.039851,0.149439 -0.039851,0.1793272 C 0.577833,0 0.647572,0 0.826899,0 H 5.16065 c 0.2391,0 0.24906,-0.00996264 0.30884,-0.199253 L 6.17684,-2.401 c 0.00996,-0.03985 0.03985,-0.10959 0.03985,-0.14944 0,-0.04981 -0.03985,-0.10958 -0.12952,-0.10958 -0.08967,0 -0.09962,0.03985 -0.16936,0.24906 -0.43836,1.35492 -0.91656,2.07223 -2.61021,2.07223 H 1.60399 Z"
         id="equation_00_05" />
      <path
         style="stroke-linecap:butt;stroke-linejoin:round"
         inkscape:connector-curvature="0"
         d="m 2.33624,-4.43537 c 0,-0.18829 -0.01395,-0.19527 -0.20922,-0.19527 -0.44632,0.43936 -1.08094,0.44633 -1.366871,0.44633 v 0.25106 c 0.167373,0 0.627651,0 1.011211,-0.19527 v 3.556664 c 0,0.230137 0,0.320797 -0.69739,0.320797 H 0.808966 V 0 c 0.12553,-0.00697385 0.983314,-0.0278954 1.241344,-0.0278954 0.21619,0 1.0949,0.02092155 1.24832,0.0278954 V -0.251059 H 3.03362 c -0.69738,0 -0.69738,-0.09066 -0.69738,-0.320797 z"
         id="equation_00_06" />
    </defs>
    <g
       style="stroke-linecap:butt;stroke-linejoin:round"
       id="equation_00_g">
      <use
         height="100%"
         width="100%"
         style="stroke-linecap:butt;stroke-linejoin:round"
         x="76.712303"
         xlink:href="#equation_00_04"
         y="62.764599"
         id="use905" />
      <use
         height="100%"
         width="100%"
         style="stroke-linecap:butt;stroke-linejoin:round"
         x="84.492203"
         xlink:href="#equation_00_00"
         y="62.764599"
         id="use907" />
      <use
         height="100%"
         width="100%"
         style="stroke-linecap:butt;stroke-linejoin:round"
         x="88.3666"
         xlink:href="#equation_00_03"
         y="62.764599"
         id="use909" />
      <use
         height="100%"
         width="100%"
         style="stroke-linecap:butt;stroke-linejoin:round"
         x="95.146698"
         xlink:href="#equation_00_06"
         y="64.259003"
         id="use911" />
      <use
         height="100%"
         width="100%"
         style="stroke-linecap:butt;stroke-linejoin:round"
         x="99.616096"
         xlink:href="#equation_00_02"
         y="62.764599"
         id="use913" />
      <use
         height="100%"
         width="100%"
         style="stroke-linecap:butt;stroke-linejoin:round"
         x="104.044"
         xlink:href="#equation_00_05"
         y="62.764599"
         id="use915" />
      <use
         height="100%"
         width="100%"
         style="stroke-linecap:butt;stroke-linejoin:round"
         x="110.845"
         xlink:href="#equation_00_06"
         y="64.259003"
         id="use917" />
      <use
         height="100%"
         width="100%"
         style="stroke-linecap:butt;stroke-linejoin:round"
         x="115.314"
         xlink:href="#equation_00_01"
         y="62.764599"
         id="use919" />
    </g>
  </g>
  <g
     transform="translate(178.4892,-54.992618)"
     id="equation_02"
     style="fill:#000000;stroke-linecap:butt;stroke-linejoin:round"
     title="$P(L_{imax},Z_{imax})$">
    <defs
       id="defs1229">
      <path
         style="stroke-linecap:butt;stroke-linejoin:round"
         inkscape:connector-curvature="0"
         d="m 3.29763,2.39103 c 0,-0.02988 0,-0.04981 -0.16936,-0.21917 -1.24533,-1.255297 -1.56414,-3.138236 -1.56414,-4.66252 0,-1.7335 0.37858,-3.467 1.60399,-4.71233 0.12951,-0.11955 0.12951,-0.13948 0.12951,-0.16936 0,-0.06974 -0.03985,-0.09963 -0.09962,-0.09963 -0.09963,0 -0.99627,0.67746 -1.58406,1.94271 -0.5081,1.0959 -0.627649,2.20175 -0.627649,3.03861 0,0.77709 0.109589,1.982565 0.657539,3.108344 0.59775,1.225406 1.45454,1.872976 1.55417,1.872976 0.05977,0 0.09962,-0.02989 0.09962,-0.09963 z"
         id="equation_02_00" />
      <path
         style="stroke-linecap:butt;stroke-linejoin:round"
         inkscape:connector-curvature="0"
         d="m 2.8792,-2.49066 c 0,-0.77709 -0.10959,-1.98257 -0.65753,-3.10834 -0.59776,-1.22541 -1.454547,-1.87298 -1.554173,-1.87298 -0.059776,0 -0.099627,0.03985 -0.099627,0.09963 0,0.02988 0,0.04981 0.189291,0.22914 0.976339,0.9863 1.544209,2.57036 1.544209,4.65255 0,1.703611 -0.36862,3.457036 -1.603985,4.71233 C 0.56787,2.34122 0.56787,2.36115 0.56787,2.39103 c 0,0.05978 0.039851,0.09963 0.099627,0.09963 0.099626,0 0.996263,-0.67746 1.584063,-1.942715 C 2.75965,-0.547945 2.8792,-1.6538 2.8792,-2.49066 Z"
         id="equation_02_01" />
      <path
         style="stroke-linecap:butt;stroke-linejoin:round"
         inkscape:connector-curvature="0"
         d="M 2.02242,-0.00996264 C 2.02242,-0.667497 1.77335,-1.05604 1.38481,-1.05604 c -0.32877,0 -0.528023,0.249066 -0.528023,0.52802 C 0.856787,-0.259029 1.05604,0 1.38481,0 1.50436,0 1.63387,-0.0398506 1.7335,-0.129514 1.76339,-0.14944 1.77335,-0.159402 1.78331,-0.159402 c 0.00996,0 0.01993,0.009962 0.01993,0.14943936 C 1.80324,0.727273 1.45455,1.32503 1.12578,1.6538 1.01619,1.76339 1.01619,1.78331 1.01619,1.8132 c 0,0.06974 0.04981,0.10959 0.09963,0.10959 0.10958,0 0.9066,-0.76712 0.9066,-1.93275264 z"
         id="equation_02_02" />
      <path
         style="stroke-linecap:butt;stroke-linejoin:round"
         inkscape:connector-curvature="0"
         d="m 3.72603,-6.0274 c 0.08966,-0.35865 0.11955,-0.46824 1.05604,-0.46824 0.29888,0 0.37858,0 0.37858,-0.18929 0,-0.11955 -0.10959,-0.11955 -0.1594,-0.11955 -0.32877,0 -1.14571,0.02988 -1.47448,0.02988 -0.29887,0 -1.02615,-0.02988 -1.32503,-0.02988 -0.06974,0 -0.18929,0 -0.18929,0.19925 0,0.10959 0.08967,0.10959 0.27896,0.10959 0.01992,0 0.20921,0 0.37858,0.01992 0.17933,0.01993 0.26899,0.02989 0.26899,0.15941 0,0.03985 -0.00996,0.06973 -0.03985,0.18929 l -1.335,5.349934 c -0.09962,0.388543 -0.11955,0.468244 -0.906596,0.468244 -0.169365,0 -0.268991,0 -0.268991,0.199253 C 0.388543,0 0.478207,0 0.657534,0 H 5.27024 C 5.50934,0 5.5193,0 5.57908,-0.169365 L 6.36613,-2.3213 c 0.03985,-0.10958 0.03985,-0.12951 0.03985,-0.13947 0,-0.03985 -0.02989,-0.10959 -0.11955,-0.10959 -0.08966,0 -0.09963,0.04981 -0.16937,0.20921 -0.33873,0.91657 -0.77708,2.052308 -2.50062,2.052308 H 2.67995 c -0.13948,0 -0.1594,0 -0.21918,-0.009962 -0.09962,-0.009963 -0.12951,-0.019926 -0.12951,-0.099627 0,-0.029888 0,-0.049813 0.04981,-0.229141 z"
         id="equation_02_03" />
      <path
         style="stroke-linecap:butt;stroke-linejoin:round"
         inkscape:connector-curvature="0"
         d="m 3.01868,-3.14819 h 1.69365 c 1.41469,0 2.7995,-1.03612 2.7995,-2.15193 0,-0.76713 -0.65753,-1.50436 -1.96264,-1.50436 H 2.3213 c -0.1893,0 -0.29888,0 -0.29888,0.18929 0,0.11955 0.08966,0.11955 0.28891,0.11955 0.12952,0 0.30884,0.00996 0.4284,0.01992 0.1594,0.01993 0.21917,0.04982 0.21917,0.15941 0,0.03985 -0.00996,0.06973 -0.03985,0.18929 l -1.33499,5.349934 c -0.09963,0.388543 -0.11955,0.468244 -0.9066,0.468244 -0.169365,0 -0.278954,0 -0.278954,0.18929 C 0.398506,0 0.518057,0 0.547945,0 0.826899,0 1.53425,-0.0298879 1.8132,-0.0298879 c 0.20922,0 0.42839,0.0099626 0.63761,0.0099626 C 2.66999,-0.0199253 2.88917,0 3.09838,0 c 0.06974,0 0.19925,0 0.19925,-0.199253 0,-0.109589 -0.08966,-0.109589 -0.27895,-0.109589 -0.36862,0 -0.64757,0 -0.64757,-0.179327 0,-0.059776 0.01992,-0.109589 0.02989,-0.169365 z m 0.71731,-2.96887 c 0.08966,-0.34869 0.10959,-0.37858 0.53798,-0.37858 h 0.95642 c 0.8269,0 1.35492,0.26899 1.35492,0.95641 0,0.38855 -0.19926,1.24533 -0.5878,1.60399 -0.49813,0.44832 -1.09589,0.52802 -1.53425,0.52802 H 3.05853 Z"
         id="equation_02_04" />
      <path
         style="stroke-linecap:butt;stroke-linejoin:round"
         inkscape:connector-curvature="0"
         d="m 7.1731,-6.56538 c 0.00996,-0.03985 0.02989,-0.08966 0.02989,-0.14944 0,-0.08966 -0.04981,-0.08966 -0.24907,-0.08966 H 2.74969 c -0.2391,0 -0.24907,0.00996 -0.30884,0.19925 L 1.8929,-4.81196 c -0.01992,0.04982 -0.02989,0.11956 -0.02989,0.13948 0,0.00996 0,0.10959 0.11956,0.10959 0.08966,0 0.10958,-0.06974 0.12951,-0.09963 0.37858,-1.17559 0.89664,-1.83312 2.45081,-1.83312 H 6.1868 l -5.569116,6.226649 c 0,0.009962 -0.039851,0.149439 -0.039851,0.1793272 C 0.577833,0 0.647572,0 0.826899,0 H 5.16065 c 0.2391,0 0.24906,-0.00996264 0.30884,-0.199253 L 6.17684,-2.401 c 0.00996,-0.03985 0.03985,-0.10959 0.03985,-0.14944 0,-0.04981 -0.03985,-0.10958 -0.12952,-0.10958 -0.08967,0 -0.09962,0.03985 -0.16936,0.24906 -0.43836,1.35492 -0.91656,2.07223 -2.61021,2.07223 H 1.60399 Z"
         id="equation_02_05" />
      <path
         style="stroke-linecap:butt;stroke-linejoin:round"
         inkscape:connector-curvature="0"
         d="M 2.94296,-2.66401 C 2.79651,-2.89415 2.5594,-3.07547 2.22466,-3.07547 c -0.89266,0 -1.799255,0.98332 -1.799255,1.98755 0,0.676463 0.4533,1.1576585 1.053055,1.1576585 0.37658,0 0.71133,-0.2161895 0.99028,-0.4881695 C 2.60125,0 3.00573,0.0697385 3.18705,0.0697385 c 0.25106,0 0.4254,-0.1534247 0.55093,-0.3696135 0.15343,-0.271981 0.24409,-0.66949 0.24409,-0.697385 0,-0.09066 -0.09066,-0.09066 -0.11158,-0.09066 -0.09764,0 -0.10461,0.0279 -0.15343,0.216189 -0.08369,0.334745 -0.21619,0.746202 -0.50909,0.746202 -0.18132,0 -0.23014,-0.153425 -0.23014,-0.341719 0,-0.118555 0.05579,-0.369614 0.10461,-0.550932 0.04882,-0.1883 0.11856,-0.47422 0.15343,-0.62765 l 0.13947,-0.53001 c 0.04185,-0.18132 0.12553,-0.50909 0.12553,-0.54396 0,-0.15343 -0.12553,-0.22316 -0.23711,-0.22316 -0.11855,0 -0.27895,0.08368 -0.3208,0.27895 z m -0.44632,1.792279 c -0.04882,0.195268 -0.20224,0.334745 -0.35567,0.467248 -0.06276,0.055791 -0.34172,0.278954 -0.64159,0.278954 -0.25804,0 -0.509094,-0.18132 -0.509094,-0.676464 0,-0.369617 0.202244,-1.136737 0.362644,-1.415687 0.32079,-0.55791 0.67646,-0.66252 0.87173,-0.66252 0.48817,0 0.62067,0.53001 0.62067,0.60673 0,0.02789 -0.01395,0.07671 -0.02092,0.09763 z"
         id="equation_02_06" />
      <path
         style="stroke-linecap:butt;stroke-linejoin:round"
         inkscape:connector-curvature="0"
         d="m 2.25953,-4.35866 c 0,-0.11158 -0.08369,-0.265 -0.27896,-0.265 -0.18829,0 -0.39053,0.18132 -0.39053,0.38356 0,0.11856 0.09066,0.26501 0.27895,0.26501 0.20224,0 0.39054,-0.19527 0.39054,-0.38357 z m -1.422668,3.54272 c -0.027896,0.09066 -0.062765,0.174346 -0.062765,0.292901 0,0.327771 0.278953,0.5927775 0.662513,0.5927775 0.69739,0 1.00424,-0.9623915 1.00424,-1.0669985 0,-0.09066 -0.09066,-0.09066 -0.11158,-0.09066 -0.09764,0 -0.10461,0.04184 -0.13251,0.118555 -0.1604,0.557908 -0.46725,0.843836 -0.73923,0.843836 -0.13947,0 -0.17434,-0.09066 -0.17434,-0.244085 0,-0.160398 0.04881,-0.292902 0.11158,-0.446326 0.06974,-0.18829 0.14645,-0.37659 0.22316,-0.55791 0.06277,-0.16737 0.31383,-0.80199 0.34172,-0.88568 0.02092,-0.06974 0.04184,-0.15342 0.04184,-0.22316 0,-0.32777 -0.27895,-0.59278 -0.66251,-0.59278 -0.690412,0 -1.011209,0.94845 -1.011209,1.067 0,0.09066 0.097634,0.09066 0.118555,0.09066 0.097634,0 0.104608,-0.03487 0.12553,-0.11158 0.18132,-0.59975 0.488164,-0.85081 0.746204,-0.85081 0.11158,0 0.17434,0.05579 0.17434,0.24409 0,0.16039 -0.04184,0.265 -0.21619,0.69738 z"
         id="equation_02_07" />
      <path
         style="stroke-linecap:butt;stroke-linejoin:round"
         inkscape:connector-curvature="0"
         d="m 3.02665,-0.564882 c -0.03487,0.139477 -0.09763,0.376588 -0.09763,0.411457 0,0.153425 0.12553,0.2231635 0.23711,0.2231635 0.12553,0 0.23711,-0.09066 0.27198,-0.1534247 0.03487,-0.0627647 0.09066,-0.2859278 0.12553,-0.4323788 0.03487,-0.132503 0.11158,-0.4533 0.15342,-0.627645 0.04184,-0.15343 0.08369,-0.30685 0.11856,-0.46725 0.07671,-0.29987 0.07671,-0.31382 0.21619,-0.53001 0.22316,-0.34172 0.57185,-0.73923 1.11581,-0.73923 0.39054,0 0.41146,0.3208 0.41146,0.48817 0,0.41843 -0.29988,1.19253 -0.41146,1.48543 -0.07671,0.195267 -0.10461,0.258032 -0.10461,0.376588 0,0.369613 0.30685,0.5997505 0.66252,0.5997505 0.69738,0 1.00423,-0.9623915 1.00423,-1.0669985 0,-0.09066 -0.09066,-0.09066 -0.11158,-0.09066 -0.09763,0 -0.10461,0.04184 -0.1325,0.118555 -0.1604,0.557908 -0.46028,0.843836 -0.73923,0.843836 -0.14645,0 -0.17435,-0.097634 -0.17435,-0.244085 0,-0.160398 0.03487,-0.251058 0.1604,-0.564882 0.08369,-0.216184 0.36962,-0.955414 0.36962,-1.345954 0,-0.11158 0,-0.40448 -0.25804,-0.60672 -0.11855,-0.09066 -0.32079,-0.1883 -0.64856,-0.1883 -0.62765,0 -1.01121,0.41146 -1.23437,0.70436 -0.0558,-0.59278 -0.55094,-0.70436 -0.9066,-0.70436 -0.57883,0 -0.96937,0.35567 -1.17858,0.63462 -0.04882,-0.48119 -0.46028,-0.63462 -0.74621,-0.63462 -0.299872,0 -0.460271,0.21619 -0.550931,0.37659 -0.153424,0.25803 -0.251058,0.65554 -0.251058,0.69041 0,0.09066 0.097634,0.09066 0.118555,0.09066 0.097634,0 0.104608,-0.02092 0.153425,-0.20921 0.104608,-0.41146 0.237111,-0.75318 0.509089,-0.75318 0.18132,0 0.23014,0.15343 0.23014,0.34172 0,0.1325 -0.06277,0.39053 -0.11158,0.57883 -0.04881,0.1883 -0.11856,0.47422 -0.15343,0.62765 l -0.223161,0.892648 c -0.027895,0.09066 -0.069738,0.265006 -0.069738,0.285927 0,0.153425 0.125529,0.2231635 0.237109,0.2231635 0.12553,0 0.23711,-0.09066 0.27198,-0.1534247 0.03487,-0.0627647 0.09066,-0.2859278 0.12553,-0.4323788 0.03487,-0.132503 0.11158,-0.4533 0.15343,-0.627645 0.04184,-0.15343 0.08368,-0.30685 0.11855,-0.46725 0.07671,-0.28593 0.09066,-0.34172 0.2929,-0.62765 0.19527,-0.27895 0.52304,-0.64159 1.04608,-0.64159 0.40448,0 0.41146,0.35567 0.41146,0.48817 0,0.17435 -0.02092,0.26501 -0.11856,0.65554 z"
         id="equation_02_08" />
      <path
         style="stroke-linecap:butt;stroke-linejoin:round"
         inkscape:connector-curvature="0"
         d="m 1.73649,-0.739228 c -0.06974,0.237111 -0.29988,0.613699 -0.65554,0.613699 -0.02093,0 -0.230141,0 -0.376591,-0.097634 0.285927,-0.09066 0.306851,-0.341719 0.306851,-0.383562 0,-0.153424 -0.118557,-0.258032 -0.278956,-0.258032 -0.195268,0 -0.397509,0.167372 -0.397509,0.425405 0,0.348692 0.390535,0.5090905 0.732255,0.5090905 0.3208,0 0.60672,-0.2022415 0.78107,-0.4951435 0.16737,0.3696142 0.55093,0.4951435 0.82989,0.4951435 0.80199,0 1.22739,-0.8717315 1.22739,-1.0669985 0,-0.09066 -0.09066,-0.09066 -0.11158,-0.09066 -0.09763,0 -0.1046,0.03487 -0.1325,0.118555 -0.14645,0.481196 -0.56488,0.843836 -0.95542,0.843836 -0.27895,0 -0.4254,-0.188294 -0.4254,-0.4533 0,-0.18132 0.16737,-0.815941 0.36264,-1.590041 0.13948,-0.53698 0.4533,-0.71133 0.68344,-0.71133 0.01394,0 0.23013,0 0.37658,0.09763 -0.22316,0.06277 -0.30685,0.25804 -0.30685,0.38357 0,0.15342 0.11856,0.25803 0.27896,0.25803 0.1604,0 0.39053,-0.1325 0.39053,-0.42541 0,-0.39053 -0.44632,-0.50909 -0.72528,-0.50909 -0.34869,0 -0.62764,0.23014 -0.78107,0.49515 -0.12553,-0.28593 -0.44632,-0.49515 -0.83686,-0.49515 -0.781071,0 -1.227397,0.85779 -1.227397,1.067 0,0.09066 0.097634,0.09066 0.118556,0.09066 0.09066,0 0.097634,-0.02789 0.132503,-0.11855 C 0.920548,-2.58032 1.3599,-2.8802 1.70162,-2.8802 c 0.23014,0 0.41843,0.12553 0.41843,0.46027 0,0.13948 -0.08369,0.48817 -0.14645,0.72528 z"
         id="equation_02_09" />
    </defs>
    <g
       style="stroke-linecap:butt;stroke-linejoin:round"
       id="equation_02_g">
      <use
         height="100%"
         width="100%"
         style="stroke-linecap:butt;stroke-linejoin:round"
         x="76.712303"
         xlink:href="#equation_02_04"
         y="62.764599"
         id="use1231" />
      <use
         height="100%"
         width="100%"
         style="stroke-linecap:butt;stroke-linejoin:round"
         x="84.492203"
         xlink:href="#equation_02_00"
         y="62.764599"
         id="use1233" />
      <use
         height="100%"
         width="100%"
         style="stroke-linecap:butt;stroke-linejoin:round"
         x="88.3666"
         xlink:href="#equation_02_03"
         y="62.764599"
         id="use1235" />
      <use
         height="100%"
         width="100%"
         style="stroke-linecap:butt;stroke-linejoin:round"
         x="95.146698"
         xlink:href="#equation_02_07"
         y="64.259003"
         id="use1237" />
      <use
         height="100%"
         width="100%"
         style="stroke-linecap:butt;stroke-linejoin:round"
         x="97.965401"
         xlink:href="#equation_02_08"
         y="64.259003"
         id="use1239" />
      <use
         height="100%"
         width="100%"
         style="stroke-linecap:butt;stroke-linejoin:round"
         x="105.035"
         xlink:href="#equation_02_06"
         y="64.259003"
         id="use1241" />
      <use
         height="100%"
         width="100%"
         style="stroke-linecap:butt;stroke-linejoin:round"
         x="109.356"
         xlink:href="#equation_02_09"
         y="64.259003"
         id="use1243" />
      <use
         height="100%"
         width="100%"
         style="stroke-linecap:butt;stroke-linejoin:round"
         x="114.372"
         xlink:href="#equation_02_02"
         y="62.764599"
         id="use1245" />
      <use
         height="100%"
         width="100%"
         style="stroke-linecap:butt;stroke-linejoin:round"
         x="118.8"
         xlink:href="#equation_02_05"
         y="62.764599"
         id="use1247" />
      <use
         height="100%"
         width="100%"
         style="stroke-linecap:butt;stroke-linejoin:round"
         x="125.601"
         xlink:href="#equation_02_07"
         y="64.259003"
         id="use1249" />
      <use
         height="100%"
         width="100%"
         style="stroke-linecap:butt;stroke-linejoin:round"
         x="128.42"
         xlink:href="#equation_02_08"
         y="64.259003"
         id="use1251" />
      <use
         height="100%"
         width="100%"
         style="stroke-linecap:butt;stroke-linejoin:round"
         x="135.489"
         xlink:href="#equation_02_06"
         y="64.259003"
         id="use1253" />
      <use
         height="100%"
         width="100%"
         style="stroke-linecap:butt;stroke-linejoin:round"
         x="139.811"
         xlink:href="#equation_02_09"
         y="64.259003"
         id="use1255" />
      <use
         height="100%"
         width="100%"
         style="stroke-linecap:butt;stroke-linejoin:round"
         x="144.827"
         xlink:href="#equation_02_01"
         y="62.764599"
         id="use1257" />
    </g>
  </g>
  <g
     title="$P(L_{i},Z_{i})$"
     style="fill:#000000;stroke-linecap:butt;stroke-linejoin:round"
     id="equation_01"
     transform="translate(22.189195,60.80739)">
    <defs
       id="defs1477">
      <path
         id="equation_01_00"
         d="m 2.25953,-4.35866 c 0,-0.11158 -0.08369,-0.265 -0.27896,-0.265 -0.18829,0 -0.39053,0.18132 -0.39053,0.38356 0,0.11856 0.09066,0.26501 0.27895,0.26501 0.20224,0 0.39054,-0.19527 0.39054,-0.38357 z m -1.422668,3.54272 c -0.027896,0.09066 -0.062765,0.174346 -0.062765,0.292901 0,0.327771 0.278953,0.5927775 0.662513,0.5927775 0.69739,0 1.00424,-0.9623915 1.00424,-1.0669985 0,-0.09066 -0.09066,-0.09066 -0.11158,-0.09066 -0.09764,0 -0.10461,0.04184 -0.13251,0.118555 -0.1604,0.557908 -0.46725,0.843836 -0.73923,0.843836 -0.13947,0 -0.17434,-0.09066 -0.17434,-0.244085 0,-0.160398 0.04881,-0.292902 0.11158,-0.446326 0.06974,-0.18829 0.14645,-0.37659 0.22316,-0.55791 0.06277,-0.16737 0.31383,-0.80199 0.34172,-0.88568 0.02092,-0.06974 0.04184,-0.15342 0.04184,-0.22316 0,-0.32777 -0.27895,-0.59278 -0.66251,-0.59278 -0.690412,0 -1.011209,0.94845 -1.011209,1.067 0,0.09066 0.097634,0.09066 0.118555,0.09066 0.097634,0 0.104608,-0.03487 0.12553,-0.11158 0.18132,-0.59975 0.488164,-0.85081 0.746204,-0.85081 0.11158,0 0.17434,0.05579 0.17434,0.24409 0,0.16039 -0.04184,0.265 -0.21619,0.69738 z"
         inkscape:connector-curvature="0"
         style="stroke-linecap:butt;stroke-linejoin:round" />
      <path
         id="equation_01_01"
         d="M 2.02242,-0.00996264 C 2.02242,-0.667497 1.77335,-1.05604 1.38481,-1.05604 c -0.32877,0 -0.528023,0.249066 -0.528023,0.52802 C 0.856787,-0.259029 1.05604,0 1.38481,0 1.50436,0 1.63387,-0.0398506 1.7335,-0.129514 1.76339,-0.14944 1.77335,-0.159402 1.78331,-0.159402 c 0.00996,0 0.01993,0.009962 0.01993,0.14943936 C 1.80324,0.727273 1.45455,1.32503 1.12578,1.6538 1.01619,1.76339 1.01619,1.78331 1.01619,1.8132 c 0,0.06974 0.04981,0.10959 0.09963,0.10959 0.10958,0 0.9066,-0.76712 0.9066,-1.93275264 z"
         inkscape:connector-curvature="0"
         style="stroke-linecap:butt;stroke-linejoin:round" />
      <path
         id="equation_01_02"
         d="m 3.72603,-6.0274 c 0.08966,-0.35865 0.11955,-0.46824 1.05604,-0.46824 0.29888,0 0.37858,0 0.37858,-0.18929 0,-0.11955 -0.10959,-0.11955 -0.1594,-0.11955 -0.32877,0 -1.14571,0.02988 -1.47448,0.02988 -0.29887,0 -1.02615,-0.02988 -1.32503,-0.02988 -0.06974,0 -0.18929,0 -0.18929,0.19925 0,0.10959 0.08967,0.10959 0.27896,0.10959 0.01992,0 0.20921,0 0.37858,0.01992 0.17933,0.01993 0.26899,0.02989 0.26899,0.15941 0,0.03985 -0.00996,0.06973 -0.03985,0.18929 l -1.335,5.349934 c -0.09962,0.388543 -0.11955,0.468244 -0.906596,0.468244 -0.169365,0 -0.268991,0 -0.268991,0.199253 C 0.388543,0 0.478207,0 0.657534,0 H 5.27024 C 5.50934,0 5.5193,0 5.57908,-0.169365 L 6.36613,-2.3213 c 0.03985,-0.10958 0.03985,-0.12951 0.03985,-0.13947 0,-0.03985 -0.02989,-0.10959 -0.11955,-0.10959 -0.08966,0 -0.09963,0.04981 -0.16937,0.20921 -0.33873,0.91657 -0.77708,2.052308 -2.50062,2.052308 H 2.67995 c -0.13948,0 -0.1594,0 -0.21918,-0.009962 -0.09962,-0.009963 -0.12951,-0.019926 -0.12951,-0.099627 0,-0.029888 0,-0.049813 0.04981,-0.229141 z"
         inkscape:connector-curvature="0"
         style="stroke-linecap:butt;stroke-linejoin:round" />
      <path
         id="equation_01_03"
         d="m 3.01868,-3.14819 h 1.69365 c 1.41469,0 2.7995,-1.03612 2.7995,-2.15193 0,-0.76713 -0.65753,-1.50436 -1.96264,-1.50436 H 2.3213 c -0.1893,0 -0.29888,0 -0.29888,0.18929 0,0.11955 0.08966,0.11955 0.28891,0.11955 0.12952,0 0.30884,0.00996 0.4284,0.01992 0.1594,0.01993 0.21917,0.04982 0.21917,0.15941 0,0.03985 -0.00996,0.06973 -0.03985,0.18929 l -1.33499,5.349934 c -0.09963,0.388543 -0.11955,0.468244 -0.9066,0.468244 -0.169365,0 -0.278954,0 -0.278954,0.18929 C 0.398506,0 0.518057,0 0.547945,0 0.826899,0 1.53425,-0.0298879 1.8132,-0.0298879 c 0.20922,0 0.42839,0.0099626 0.63761,0.0099626 C 2.66999,-0.0199253 2.88917,0 3.09838,0 c 0.06974,0 0.19925,0 0.19925,-0.199253 0,-0.109589 -0.08966,-0.109589 -0.27895,-0.109589 -0.36862,0 -0.64757,0 -0.64757,-0.179327 0,-0.059776 0.01992,-0.109589 0.02989,-0.169365 z m 0.71731,-2.96887 c 0.08966,-0.34869 0.10959,-0.37858 0.53798,-0.37858 h 0.95642 c 0.8269,0 1.35492,0.26899 1.35492,0.95641 0,0.38855 -0.19926,1.24533 -0.5878,1.60399 -0.49813,0.44832 -1.09589,0.52802 -1.53425,0.52802 H 3.05853 Z"
         inkscape:connector-curvature="0"
         style="stroke-linecap:butt;stroke-linejoin:round" />
      <path
         id="equation_01_04"
         d="m 7.1731,-6.56538 c 0.00996,-0.03985 0.02989,-0.08966 0.02989,-0.14944 0,-0.08966 -0.04981,-0.08966 -0.24907,-0.08966 H 2.74969 c -0.2391,0 -0.24907,0.00996 -0.30884,0.19925 L 1.8929,-4.81196 c -0.01992,0.04982 -0.02989,0.11956 -0.02989,0.13948 0,0.00996 0,0.10959 0.11956,0.10959 0.08966,0 0.10958,-0.06974 0.12951,-0.09963 0.37858,-1.17559 0.89664,-1.83312 2.45081,-1.83312 H 6.1868 l -5.569116,6.226649 c 0,0.009962 -0.039851,0.149439 -0.039851,0.1793272 C 0.577833,0 0.647572,0 0.826899,0 H 5.16065 c 0.2391,0 0.24906,-0.00996264 0.30884,-0.199253 L 6.17684,-2.401 c 0.00996,-0.03985 0.03985,-0.10959 0.03985,-0.14944 0,-0.04981 -0.03985,-0.10958 -0.12952,-0.10958 -0.08967,0 -0.09962,0.03985 -0.16936,0.24906 -0.43836,1.35492 -0.91656,2.07223 -2.61021,2.07223 H 1.60399 Z"
         inkscape:connector-curvature="0"
         style="stroke-linecap:butt;stroke-linejoin:round" />
      <path
         id="equation_01_05"
         d="m 3.29763,2.39103 c 0,-0.02988 0,-0.04981 -0.16936,-0.21917 -1.24533,-1.255297 -1.56414,-3.138236 -1.56414,-4.66252 0,-1.7335 0.37858,-3.467 1.60399,-4.71233 0.12951,-0.11955 0.12951,-0.13948 0.12951,-0.16936 0,-0.06974 -0.03985,-0.09963 -0.09962,-0.09963 -0.09963,0 -0.99627,0.67746 -1.58406,1.94271 -0.5081,1.0959 -0.627649,2.20175 -0.627649,3.03861 0,0.77709 0.109589,1.982565 0.657539,3.108344 0.59775,1.225406 1.45454,1.872976 1.55417,1.872976 0.05977,0 0.09962,-0.02989 0.09962,-0.09963 z"
         inkscape:connector-curvature="0"
         style="stroke-linecap:butt;stroke-linejoin:round" />
      <path
         id="equation_01_06"
         d="m 2.8792,-2.49066 c 0,-0.77709 -0.10959,-1.98257 -0.65753,-3.10834 -0.59776,-1.22541 -1.454547,-1.87298 -1.554173,-1.87298 -0.059776,0 -0.099627,0.03985 -0.099627,0.09963 0,0.02988 0,0.04981 0.189291,0.22914 0.976339,0.9863 1.544209,2.57036 1.544209,4.65255 0,1.703611 -0.36862,3.457036 -1.603985,4.71233 C 0.56787,2.34122 0.56787,2.36115 0.56787,2.39103 c 0,0.05978 0.039851,0.09963 0.099627,0.09963 0.099626,0 0.996263,-0.67746 1.584063,-1.942715 C 2.75965,-0.547945 2.8792,-1.6538 2.8792,-2.49066 Z"
         inkscape:connector-curvature="0"
         style="stroke-linecap:butt;stroke-linejoin:round" />
    </defs>
    <g
       id="equation_01_g"
       style="stroke-linecap:butt;stroke-linejoin:round">
      <use
         id="use1479"
         y="62.764599"
         xlink:href="#equation_01_03"
         x="76.712303"
         style="stroke-linecap:butt;stroke-linejoin:round"
         width="100%"
         height="100%" />
      <use
         id="use1481"
         y="62.764599"
         xlink:href="#equation_01_05"
         x="84.492203"
         style="stroke-linecap:butt;stroke-linejoin:round"
         width="100%"
         height="100%" />
      <use
         id="use1483"
         y="62.764599"
         xlink:href="#equation_01_02"
         x="88.3666"
         style="stroke-linecap:butt;stroke-linejoin:round"
         width="100%"
         height="100%" />
      <use
         id="use1485"
         y="64.259003"
         xlink:href="#equation_01_00"
         x="95.146698"
         style="stroke-linecap:butt;stroke-linejoin:round"
         width="100%"
         height="100%" />
      <use
         id="use1487"
         y="62.764599"
         xlink:href="#equation_01_01"
         x="98.4636"
         style="stroke-linecap:butt;stroke-linejoin:round"
         width="100%"
         height="100%" />
      <use
         id="use1489"
         y="62.764599"
         xlink:href="#equation_01_04"
         x="102.891"
         style="stroke-linecap:butt;stroke-linejoin:round"
         width="100%"
         height="100%" />
      <use
         id="use1491"
         y="64.259003"
         xlink:href="#equation_01_00"
         x="109.692"
         style="stroke-linecap:butt;stroke-linejoin:round"
         width="100%"
         height="100%" />
      <use
         id="use1493"
         y="62.764599"
         xlink:href="#equation_01_06"
         x="113.009"
         style="stroke-linecap:butt;stroke-linejoin:round"
         width="100%"
         height="100%" />
    </g>
  </g>
  <g
     transform="translate(101.0892,62.30739)"
     id="equation_03"
     style="fill:#000000;stroke-linecap:butt;stroke-linejoin:round"
     title="$P(L_{i+1},Z_{i+1})$">
    <defs
       id="defs1696">
      <path
         style="stroke-linecap:butt;stroke-linejoin:round"
         inkscape:connector-curvature="0"
         d="m 2.25953,-4.35866 c 0,-0.11158 -0.08369,-0.265 -0.27896,-0.265 -0.18829,0 -0.39053,0.18132 -0.39053,0.38356 0,0.11856 0.09066,0.26501 0.27895,0.26501 0.20224,0 0.39054,-0.19527 0.39054,-0.38357 z m -1.422668,3.54272 c -0.027896,0.09066 -0.062765,0.174346 -0.062765,0.292901 0,0.327771 0.278953,0.5927775 0.662513,0.5927775 0.69739,0 1.00424,-0.9623915 1.00424,-1.0669985 0,-0.09066 -0.09066,-0.09066 -0.11158,-0.09066 -0.09764,0 -0.10461,0.04184 -0.13251,0.118555 -0.1604,0.557908 -0.46725,0.843836 -0.73923,0.843836 -0.13947,0 -0.17434,-0.09066 -0.17434,-0.244085 0,-0.160398 0.04881,-0.292902 0.11158,-0.446326 0.06974,-0.18829 0.14645,-0.37659 0.22316,-0.55791 0.06277,-0.16737 0.31383,-0.80199 0.34172,-0.88568 0.02092,-0.06974 0.04184,-0.15342 0.04184,-0.22316 0,-0.32777 -0.27895,-0.59278 -0.66251,-0.59278 -0.690412,0 -1.011209,0.94845 -1.011209,1.067 0,0.09066 0.097634,0.09066 0.118555,0.09066 0.097634,0 0.104608,-0.03487 0.12553,-0.11158 0.18132,-0.59975 0.488164,-0.85081 0.746204,-0.85081 0.11158,0 0.17434,0.05579 0.17434,0.24409 0,0.16039 -0.04184,0.265 -0.21619,0.69738 z"
         id="equation_03_00" />
      <path
         style="stroke-linecap:butt;stroke-linejoin:round"
         inkscape:connector-curvature="0"
         d="M 2.02242,-0.00996264 C 2.02242,-0.667497 1.77335,-1.05604 1.38481,-1.05604 c -0.32877,0 -0.528023,0.249066 -0.528023,0.52802 C 0.856787,-0.259029 1.05604,0 1.38481,0 1.50436,0 1.63387,-0.0398506 1.7335,-0.129514 1.76339,-0.14944 1.77335,-0.159402 1.78331,-0.159402 c 0.00996,0 0.01993,0.009962 0.01993,0.14943936 C 1.80324,0.727273 1.45455,1.32503 1.12578,1.6538 1.01619,1.76339 1.01619,1.78331 1.01619,1.8132 c 0,0.06974 0.04981,0.10959 0.09963,0.10959 0.10958,0 0.9066,-0.76712 0.9066,-1.93275264 z"
         id="equation_03_01" />
      <path
         style="stroke-linecap:butt;stroke-linejoin:round"
         inkscape:connector-curvature="0"
         d="m 3.72603,-6.0274 c 0.08966,-0.35865 0.11955,-0.46824 1.05604,-0.46824 0.29888,0 0.37858,0 0.37858,-0.18929 0,-0.11955 -0.10959,-0.11955 -0.1594,-0.11955 -0.32877,0 -1.14571,0.02988 -1.47448,0.02988 -0.29887,0 -1.02615,-0.02988 -1.32503,-0.02988 -0.06974,0 -0.18929,0 -0.18929,0.19925 0,0.10959 0.08967,0.10959 0.27896,0.10959 0.01992,0 0.20921,0 0.37858,0.01992 0.17933,0.01993 0.26899,0.02989 0.26899,0.15941 0,0.03985 -0.00996,0.06973 -0.03985,0.18929 l -1.335,5.349934 c -0.09962,0.388543 -0.11955,0.468244 -0.906596,0.468244 -0.169365,0 -0.268991,0 -0.268991,0.199253 C 0.388543,0 0.478207,0 0.657534,0 H 5.27024 C 5.50934,0 5.5193,0 5.57908,-0.169365 L 6.36613,-2.3213 c 0.03985,-0.10958 0.03985,-0.12951 0.03985,-0.13947 0,-0.03985 -0.02989,-0.10959 -0.11955,-0.10959 -0.08966,0 -0.09963,0.04981 -0.16937,0.20921 -0.33873,0.91657 -0.77708,2.052308 -2.50062,2.052308 H 2.67995 c -0.13948,0 -0.1594,0 -0.21918,-0.009962 -0.09962,-0.009963 -0.12951,-0.019926 -0.12951,-0.099627 0,-0.029888 0,-0.049813 0.04981,-0.229141 z"
         id="equation_03_02" />
      <path
         style="stroke-linecap:butt;stroke-linejoin:round"
         inkscape:connector-curvature="0"
         d="m 3.01868,-3.14819 h 1.69365 c 1.41469,0 2.7995,-1.03612 2.7995,-2.15193 0,-0.76713 -0.65753,-1.50436 -1.96264,-1.50436 H 2.3213 c -0.1893,0 -0.29888,0 -0.29888,0.18929 0,0.11955 0.08966,0.11955 0.28891,0.11955 0.12952,0 0.30884,0.00996 0.4284,0.01992 0.1594,0.01993 0.21917,0.04982 0.21917,0.15941 0,0.03985 -0.00996,0.06973 -0.03985,0.18929 l -1.33499,5.349934 c -0.09963,0.388543 -0.11955,0.468244 -0.9066,0.468244 -0.169365,0 -0.278954,0 -0.278954,0.18929 C 0.398506,0 0.518057,0 0.547945,0 0.826899,0 1.53425,-0.0298879 1.8132,-0.0298879 c 0.20922,0 0.42839,0.0099626 0.63761,0.0099626 C 2.66999,-0.0199253 2.88917,0 3.09838,0 c 0.06974,0 0.19925,0 0.19925,-0.199253 0,-0.109589 -0.08966,-0.109589 -0.27895,-0.109589 -0.36862,0 -0.64757,0 -0.64757,-0.179327 0,-0.059776 0.01992,-0.109589 0.02989,-0.169365 z m 0.71731,-2.96887 c 0.08966,-0.34869 0.10959,-0.37858 0.53798,-0.37858 h 0.95642 c 0.8269,0 1.35492,0.26899 1.35492,0.95641 0,0.38855 -0.19926,1.24533 -0.5878,1.60399 -0.49813,0.44832 -1.09589,0.52802 -1.53425,0.52802 H 3.05853 Z"
         id="equation_03_03" />
      <path
         style="stroke-linecap:butt;stroke-linejoin:round"
         inkscape:connector-curvature="0"
         d="m 7.1731,-6.56538 c 0.00996,-0.03985 0.02989,-0.08966 0.02989,-0.14944 0,-0.08966 -0.04981,-0.08966 -0.24907,-0.08966 H 2.74969 c -0.2391,0 -0.24907,0.00996 -0.30884,0.19925 L 1.8929,-4.81196 c -0.01992,0.04982 -0.02989,0.11956 -0.02989,0.13948 0,0.00996 0,0.10959 0.11956,0.10959 0.08966,0 0.10958,-0.06974 0.12951,-0.09963 0.37858,-1.17559 0.89664,-1.83312 2.45081,-1.83312 H 6.1868 l -5.569116,6.226649 c 0,0.009962 -0.039851,0.149439 -0.039851,0.1793272 C 0.577833,0 0.647572,0 0.826899,0 H 5.16065 c 0.2391,0 0.24906,-0.00996264 0.30884,-0.199253 L 6.17684,-2.401 c 0.00996,-0.03985 0.03985,-0.10959 0.03985,-0.14944 0,-0.04981 -0.03985,-0.10958 -0.12952,-0.10958 -0.08967,0 -0.09962,0.03985 -0.16936,0.24906 -0.43836,1.35492 -0.91656,2.07223 -2.61021,2.07223 H 1.60399 Z"
         id="equation_03_04" />
      <path
         style="stroke-linecap:butt;stroke-linejoin:round"
         inkscape:connector-curvature="0"
         d="m 3.22889,-1.57609 h 2.134 c 0.09066,0 0.25803,0 0.25803,-0.16737 0,-0.17435 -0.1604,-0.17435 -0.25803,-0.17435 h -2.134 v -2.14097 c 0,-0.09066 0,-0.25803 -0.16737,-0.25803 -0.17435,0 -0.17435,0.1604 -0.17435,0.25803 v 2.14097 H 0.746202 c -0.09066,0 -0.258033,0 -0.258033,0.16737 0,0.17435 0.160399,0.17435 0.258033,0.17435 H 2.88717 v 2.140972 c 0,0.09066 0,0.258032 0.16738,0.258032 0.17434,0 0.17434,-0.160398 0.17434,-0.258032 z"
         id="equation_03_05" />
      <path
         style="stroke-linecap:butt;stroke-linejoin:round"
         inkscape:connector-curvature="0"
         d="m 2.33624,-4.43537 c 0,-0.18829 -0.01395,-0.19527 -0.20922,-0.19527 -0.44632,0.43936 -1.08094,0.44633 -1.366871,0.44633 v 0.25106 c 0.167373,0 0.627651,0 1.011211,-0.19527 v 3.556664 c 0,0.230137 0,0.320797 -0.69739,0.320797 H 0.808966 V 0 c 0.12553,-0.00697385 0.983314,-0.0278954 1.241344,-0.0278954 0.21619,0 1.0949,0.02092155 1.24832,0.0278954 V -0.251059 H 3.03362 c -0.69738,0 -0.69738,-0.09066 -0.69738,-0.320797 z"
         id="equation_03_06" />
      <path
         style="stroke-linecap:butt;stroke-linejoin:round"
         inkscape:connector-curvature="0"
         d="m 3.29763,2.39103 c 0,-0.02988 0,-0.04981 -0.16936,-0.21917 -1.24533,-1.255297 -1.56414,-3.138236 -1.56414,-4.66252 0,-1.7335 0.37858,-3.467 1.60399,-4.71233 0.12951,-0.11955 0.12951,-0.13948 0.12951,-0.16936 0,-0.06974 -0.03985,-0.09963 -0.09962,-0.09963 -0.09963,0 -0.99627,0.67746 -1.58406,1.94271 -0.5081,1.0959 -0.627649,2.20175 -0.627649,3.03861 0,0.77709 0.109589,1.982565 0.657539,3.108344 0.59775,1.225406 1.45454,1.872976 1.55417,1.872976 0.05977,0 0.09962,-0.02989 0.09962,-0.09963 z"
         id="equation_03_07" />
      <path
         style="stroke-linecap:butt;stroke-linejoin:round"
         inkscape:connector-curvature="0"
         d="m 2.8792,-2.49066 c 0,-0.77709 -0.10959,-1.98257 -0.65753,-3.10834 -0.59776,-1.22541 -1.454547,-1.87298 -1.554173,-1.87298 -0.059776,0 -0.099627,0.03985 -0.099627,0.09963 0,0.02988 0,0.04981 0.189291,0.22914 0.976339,0.9863 1.544209,2.57036 1.544209,4.65255 0,1.703611 -0.36862,3.457036 -1.603985,4.71233 C 0.56787,2.34122 0.56787,2.36115 0.56787,2.39103 c 0,0.05978 0.039851,0.09963 0.099627,0.09963 0.099626,0 0.996263,-0.67746 1.584063,-1.942715 C 2.75965,-0.547945 2.8792,-1.6538 2.8792,-2.49066 Z"
         id="equation_03_08" />
    </defs>
    <g
       style="stroke-linecap:butt;stroke-linejoin:round"
       id="equation_03_g">
      <use
         height="100%"
         width="100%"
         style="stroke-linecap:butt;stroke-linejoin:round"
         x="76.712303"
         xlink:href="#equation_03_03"
         y="62.764599"
         id="use1698" />
      <use
         height="100%"
         width="100%"
         style="stroke-linecap:butt;stroke-linejoin:round"
         x="84.492203"
         xlink:href="#equation_03_07"
         y="62.764599"
         id="use1700" />
      <use
         height="100%"
         width="100%"
         style="stroke-linecap:butt;stroke-linejoin:round"
         x="88.3666"
         xlink:href="#equation_03_02"
         y="62.764599"
         id="use1702" />
      <use
         height="100%"
         width="100%"
         style="stroke-linecap:butt;stroke-linejoin:round"
         x="95.146698"
         xlink:href="#equation_03_00"
         y="64.259003"
         id="use1704" />
      <use
         height="100%"
         width="100%"
         style="stroke-linecap:butt;stroke-linejoin:round"
         x="97.965401"
         xlink:href="#equation_03_05"
         y="64.259003"
         id="use1706" />
      <use
         height="100%"
         width="100%"
         style="stroke-linecap:butt;stroke-linejoin:round"
         x="104.081"
         xlink:href="#equation_03_06"
         y="64.259003"
         id="use1708" />
      <use
         height="100%"
         width="100%"
         style="stroke-linecap:butt;stroke-linejoin:round"
         x="108.551"
         xlink:href="#equation_03_01"
         y="62.764599"
         id="use1710" />
      <use
         height="100%"
         width="100%"
         style="stroke-linecap:butt;stroke-linejoin:round"
         x="112.979"
         xlink:href="#equation_03_04"
         y="62.764599"
         id="use1712" />
      <use
         height="100%"
         width="100%"
         style="stroke-linecap:butt;stroke-linejoin:round"
         x="119.779"
         xlink:href="#equation_03_00"
         y="64.259003"
         id="use1714" />
      <use
         height="100%"
         width="100%"
         style="stroke-linecap:butt;stroke-linejoin:round"
         x="122.598"
         xlink:href="#equation_03_05"
         y="64.259003"
         id="use1716" />
      <use
         height="100%"
         width="100%"
         style="stroke-linecap:butt;stroke-linejoin:round"
         x="128.714"
         xlink:href="#equation_03_06"
         y="64.259003"
         id="use1718" />
      <use
         height="100%"
         width="100%"
         style="stroke-linecap:butt;stroke-linejoin:round"
         x="133.18401"
         xlink:href="#equation_03_08"
         y="62.764599"
         id="use1720" />
    </g>
  </g>
  <g
     title="$n_{imax-1}$"
     style="fill:#000000;stroke-linecap:butt;stroke-linejoin:round"
     id="equation_04"
     transform="translate(164.6892,-21.392617)">
    <defs
       id="defs2526">
      <path
         id="equation_04_00"
         d="m 0.876712,-0.587796 c -0.029888,0.14944 -0.089663,0.378581 -0.089663,0.428394 0,0.1793273 0.139477,0.268991 0.288921,0.268991 0.11955,0 0.29887,-0.0797011 0.36861,-0.278954 C 1.45455,-0.18929 1.5741,-0.657534 1.63387,-0.9066 l 0.21918,-0.89664 c 0.05978,-0.21918 0.11955,-0.43835 0.16937,-0.66749 0.03985,-0.16937 0.11955,-0.45829 0.12951,-0.49814 0.14944,-0.30884 0.67746,-1.21544 1.62391,-1.21544 0.44832,0 0.53798,0.36862 0.53798,0.69739 0,0.61768 -0.48817,1.8929 -0.64757,2.32129 -0.08966,0.229142 -0.09962,0.348694 -0.09962,0.458283 0,0.468244 0.34869,0.816936 0.81693,0.816936 0.93649,0 1.30511,-1.454549 1.30511,-1.534249 0,-0.09962 -0.08967,-0.09962 -0.11955,-0.09962 -0.09963,0 -0.09963,0.02988 -0.14944,0.17932 -0.19926,0.677463 -0.52802,1.235371 -1.01619,1.235371 -0.16937,0 -0.23911,-0.099626 -0.23911,-0.328767 0,-0.249066 0.08967,-0.48817 0.17933,-0.707344 0.18929,-0.52802 0.60772,-1.62391 0.60772,-2.19178 0,-0.6675 -0.42839,-1.06601 -1.1457,-1.06601 -0.89664,0 -1.38481,0.63761 -1.55417,0.86675 -0.04982,-0.55791 -0.45828,-0.86675 -0.91657,-0.86675 -0.45829,0 -0.647568,0.38855 -0.747194,0.56787 -0.159402,0.33873 -0.298879,0.92653 -0.298879,0.96638 0,0.09963 0.099626,0.09963 0.119551,0.09963 0.099627,0 0.109589,-0.00997 0.169365,-0.22914 0.169365,-0.70735 0.368618,-1.18556 0.727277,-1.18556 0.19925,0 0.30884,0.12952 0.30884,0.45828 0,0.20922 -0.02989,0.31881 -0.1594,0.83686 z"
         inkscape:connector-curvature="0"
         style="stroke-linecap:butt;stroke-linejoin:round" />
      <path
         id="equation_04_01"
         d="m 5.18854,-1.57609 c 0.11158,0 0.27896,0 0.27896,-0.16737 0,-0.17435 -0.1604,-0.17435 -0.27896,-0.17435 H 1.03213 c -0.111582,0 -0.278954,0 -0.278954,0.16737 0,0.17435 0.160398,0.17435 0.278954,0.17435 z"
         inkscape:connector-curvature="0"
         style="stroke-linecap:butt;stroke-linejoin:round" />
      <path
         id="equation_04_02"
         d="m 2.33624,-4.43537 c 0,-0.18829 -0.01395,-0.19527 -0.20922,-0.19527 -0.44632,0.43936 -1.08094,0.44633 -1.366871,0.44633 v 0.25106 c 0.167373,0 0.627651,0 1.011211,-0.19527 v 3.556664 c 0,0.230137 0,0.320797 -0.69739,0.320797 H 0.808966 V 0 c 0.12553,-0.00697385 0.983314,-0.0278954 1.241344,-0.0278954 0.21619,0 1.0949,0.02092155 1.24832,0.0278954 V -0.251059 H 3.03362 c -0.69738,0 -0.69738,-0.09066 -0.69738,-0.320797 z"
         inkscape:connector-curvature="0"
         style="stroke-linecap:butt;stroke-linejoin:round" />
      <path
         id="equation_04_03"
         d="M 2.94296,-2.66401 C 2.79651,-2.89415 2.5594,-3.07547 2.22466,-3.07547 c -0.89266,0 -1.799255,0.98332 -1.799255,1.98755 0,0.676463 0.4533,1.1576585 1.053055,1.1576585 0.37658,0 0.71133,-0.2161895 0.99028,-0.4881695 C 2.60125,0 3.00573,0.0697385 3.18705,0.0697385 c 0.25106,0 0.4254,-0.1534247 0.55093,-0.3696135 0.15343,-0.271981 0.24409,-0.66949 0.24409,-0.697385 0,-0.09066 -0.09066,-0.09066 -0.11158,-0.09066 -0.09764,0 -0.10461,0.0279 -0.15343,0.216189 -0.08369,0.334745 -0.21619,0.746202 -0.50909,0.746202 -0.18132,0 -0.23014,-0.153425 -0.23014,-0.341719 0,-0.118555 0.05579,-0.369614 0.10461,-0.550932 0.04882,-0.1883 0.11856,-0.47422 0.15343,-0.62765 l 0.13947,-0.53001 c 0.04185,-0.18132 0.12553,-0.50909 0.12553,-0.54396 0,-0.15343 -0.12553,-0.22316 -0.23711,-0.22316 -0.11855,0 -0.27895,0.08368 -0.3208,0.27895 z m -0.44632,1.792279 c -0.04882,0.195268 -0.20224,0.334745 -0.35567,0.467248 -0.06276,0.055791 -0.34172,0.278954 -0.64159,0.278954 -0.25804,0 -0.509094,-0.18132 -0.509094,-0.676464 0,-0.369617 0.202244,-1.136737 0.362644,-1.415687 0.32079,-0.55791 0.67646,-0.66252 0.87173,-0.66252 0.48817,0 0.62067,0.53001 0.62067,0.60673 0,0.02789 -0.01395,0.07671 -0.02092,0.09763 z"
         inkscape:connector-curvature="0"
         style="stroke-linecap:butt;stroke-linejoin:round" />
      <path
         id="equation_04_04"
         d="m 2.25953,-4.35866 c 0,-0.11158 -0.08369,-0.265 -0.27896,-0.265 -0.18829,0 -0.39053,0.18132 -0.39053,0.38356 0,0.11856 0.09066,0.26501 0.27895,0.26501 0.20224,0 0.39054,-0.19527 0.39054,-0.38357 z m -1.422668,3.54272 c -0.027896,0.09066 -0.062765,0.174346 -0.062765,0.292901 0,0.327771 0.278953,0.5927775 0.662513,0.5927775 0.69739,0 1.00424,-0.9623915 1.00424,-1.0669985 0,-0.09066 -0.09066,-0.09066 -0.11158,-0.09066 -0.09764,0 -0.10461,0.04184 -0.13251,0.118555 -0.1604,0.557908 -0.46725,0.843836 -0.73923,0.843836 -0.13947,0 -0.17434,-0.09066 -0.17434,-0.244085 0,-0.160398 0.04881,-0.292902 0.11158,-0.446326 0.06974,-0.18829 0.14645,-0.37659 0.22316,-0.55791 0.06277,-0.16737 0.31383,-0.80199 0.34172,-0.88568 0.02092,-0.06974 0.04184,-0.15342 0.04184,-0.22316 0,-0.32777 -0.27895,-0.59278 -0.66251,-0.59278 -0.690412,0 -1.011209,0.94845 -1.011209,1.067 0,0.09066 0.097634,0.09066 0.118555,0.09066 0.097634,0 0.104608,-0.03487 0.12553,-0.11158 0.18132,-0.59975 0.488164,-0.85081 0.746204,-0.85081 0.11158,0 0.17434,0.05579 0.17434,0.24409 0,0.16039 -0.04184,0.265 -0.21619,0.69738 z"
         inkscape:connector-curvature="0"
         style="stroke-linecap:butt;stroke-linejoin:round" />
      <path
         id="equation_04_05"
         d="m 3.02665,-0.564882 c -0.03487,0.139477 -0.09763,0.376588 -0.09763,0.411457 0,0.153425 0.12553,0.2231635 0.23711,0.2231635 0.12553,0 0.23711,-0.09066 0.27198,-0.1534247 0.03487,-0.0627647 0.09066,-0.2859278 0.12553,-0.4323788 0.03487,-0.132503 0.11158,-0.4533 0.15342,-0.627645 0.04184,-0.15343 0.08369,-0.30685 0.11856,-0.46725 0.07671,-0.29987 0.07671,-0.31382 0.21619,-0.53001 0.22316,-0.34172 0.57185,-0.73923 1.11581,-0.73923 0.39054,0 0.41146,0.3208 0.41146,0.48817 0,0.41843 -0.29988,1.19253 -0.41146,1.48543 -0.07671,0.195267 -0.10461,0.258032 -0.10461,0.376588 0,0.369613 0.30685,0.5997505 0.66252,0.5997505 0.69738,0 1.00423,-0.9623915 1.00423,-1.0669985 0,-0.09066 -0.09066,-0.09066 -0.11158,-0.09066 -0.09763,0 -0.10461,0.04184 -0.1325,0.118555 -0.1604,0.557908 -0.46028,0.843836 -0.73923,0.843836 -0.14645,0 -0.17435,-0.097634 -0.17435,-0.244085 0,-0.160398 0.03487,-0.251058 0.1604,-0.564882 0.08369,-0.216184 0.36962,-0.955414 0.36962,-1.345954 0,-0.11158 0,-0.40448 -0.25804,-0.60672 -0.11855,-0.09066 -0.32079,-0.1883 -0.64856,-0.1883 -0.62765,0 -1.01121,0.41146 -1.23437,0.70436 -0.0558,-0.59278 -0.55094,-0.70436 -0.9066,-0.70436 -0.57883,0 -0.96937,0.35567 -1.17858,0.63462 -0.04882,-0.48119 -0.46028,-0.63462 -0.74621,-0.63462 -0.299872,0 -0.460271,0.21619 -0.550931,0.37659 -0.153424,0.25803 -0.251058,0.65554 -0.251058,0.69041 0,0.09066 0.097634,0.09066 0.118555,0.09066 0.097634,0 0.104608,-0.02092 0.153425,-0.20921 0.104608,-0.41146 0.237111,-0.75318 0.509089,-0.75318 0.18132,0 0.23014,0.15343 0.23014,0.34172 0,0.1325 -0.06277,0.39053 -0.11158,0.57883 -0.04881,0.1883 -0.11856,0.47422 -0.15343,0.62765 l -0.223161,0.892648 c -0.027895,0.09066 -0.069738,0.265006 -0.069738,0.285927 0,0.153425 0.125529,0.2231635 0.237109,0.2231635 0.12553,0 0.23711,-0.09066 0.27198,-0.1534247 0.03487,-0.0627647 0.09066,-0.2859278 0.12553,-0.4323788 0.03487,-0.132503 0.11158,-0.4533 0.15343,-0.627645 0.04184,-0.15343 0.08368,-0.30685 0.11855,-0.46725 0.07671,-0.28593 0.09066,-0.34172 0.2929,-0.62765 0.19527,-0.27895 0.52304,-0.64159 1.04608,-0.64159 0.40448,0 0.41146,0.35567 0.41146,0.48817 0,0.17435 -0.02092,0.26501 -0.11856,0.65554 z"
         inkscape:connector-curvature="0"
         style="stroke-linecap:butt;stroke-linejoin:round" />
      <path
         id="equation_04_06"
         d="m 1.73649,-0.739228 c -0.06974,0.237111 -0.29988,0.613699 -0.65554,0.613699 -0.02093,0 -0.230141,0 -0.376591,-0.097634 0.285927,-0.09066 0.306851,-0.341719 0.306851,-0.383562 0,-0.153424 -0.118557,-0.258032 -0.278956,-0.258032 -0.195268,0 -0.397509,0.167372 -0.397509,0.425405 0,0.348692 0.390535,0.5090905 0.732255,0.5090905 0.3208,0 0.60672,-0.2022415 0.78107,-0.4951435 0.16737,0.3696142 0.55093,0.4951435 0.82989,0.4951435 0.80199,0 1.22739,-0.8717315 1.22739,-1.0669985 0,-0.09066 -0.09066,-0.09066 -0.11158,-0.09066 -0.09763,0 -0.1046,0.03487 -0.1325,0.118555 -0.14645,0.481196 -0.56488,0.843836 -0.95542,0.843836 -0.27895,0 -0.4254,-0.188294 -0.4254,-0.4533 0,-0.18132 0.16737,-0.815941 0.36264,-1.590041 0.13948,-0.53698 0.4533,-0.71133 0.68344,-0.71133 0.01394,0 0.23013,0 0.37658,0.09763 -0.22316,0.06277 -0.30685,0.25804 -0.30685,0.38357 0,0.15342 0.11856,0.25803 0.27896,0.25803 0.1604,0 0.39053,-0.1325 0.39053,-0.42541 0,-0.39053 -0.44632,-0.50909 -0.72528,-0.50909 -0.34869,0 -0.62764,0.23014 -0.78107,0.49515 -0.12553,-0.28593 -0.44632,-0.49515 -0.83686,-0.49515 -0.781071,0 -1.227397,0.85779 -1.227397,1.067 0,0.09066 0.097634,0.09066 0.118556,0.09066 0.09066,0 0.097634,-0.02789 0.132503,-0.11855 C 0.920548,-2.58032 1.3599,-2.8802 1.70162,-2.8802 c 0.23014,0 0.41843,0.12553 0.41843,0.46027 0,0.13948 -0.08369,0.48817 -0.14645,0.72528 z"
         inkscape:connector-curvature="0"
         style="stroke-linecap:butt;stroke-linejoin:round" />
    </defs>
    <g
       id="equation_04_g"
       style="stroke-linecap:butt;stroke-linejoin:round">
      <use
         id="use2528"
         y="62.764599"
         xlink:href="#equation_04_00"
         x="76.712303"
         style="stroke-linecap:butt;stroke-linejoin:round"
         width="100%"
         height="100%" />
      <use
         id="use2530"
         y="64.259003"
         xlink:href="#equation_04_04"
         x="82.692299"
         style="stroke-linecap:butt;stroke-linejoin:round"
         width="100%"
         height="100%" />
      <use
         id="use2532"
         y="64.259003"
         xlink:href="#equation_04_05"
         x="85.511002"
         style="stroke-linecap:butt;stroke-linejoin:round"
         width="100%"
         height="100%" />
      <use
         id="use2534"
         y="64.259003"
         xlink:href="#equation_04_03"
         x="92.580597"
         style="stroke-linecap:butt;stroke-linejoin:round"
         width="100%"
         height="100%" />
      <use
         id="use2536"
         y="64.259003"
         xlink:href="#equation_04_06"
         x="96.902"
         style="stroke-linecap:butt;stroke-linejoin:round"
         width="100%"
         height="100%" />
      <use
         id="use2538"
         y="64.259003"
         xlink:href="#equation_04_01"
         x="101.42"
         style="stroke-linecap:butt;stroke-linejoin:round"
         width="100%"
         height="100%" />
      <use
         id="use2540"
         y="64.259003"
         xlink:href="#equation_04_02"
         x="107.647"
         style="stroke-linecap:butt;stroke-linejoin:round"
         width="100%"
         height="100%" />
    </g>
  </g>
  <g
     transform="translate(-37.210807,-19.892617)"
     id="equation_06"
     style="fill:#000000;stroke-linecap:butt;stroke-linejoin:round"
     title="$n_{1}$">
    <defs
       id="defs2832">
      <path
         style="stroke-linecap:butt;stroke-linejoin:round"
         inkscape:connector-curvature="0"
         d="m 0.876712,-0.587796 c -0.029888,0.14944 -0.089663,0.378581 -0.089663,0.428394 0,0.1793273 0.139477,0.268991 0.288921,0.268991 0.11955,0 0.29887,-0.0797011 0.36861,-0.278954 C 1.45455,-0.18929 1.5741,-0.657534 1.63387,-0.9066 l 0.21918,-0.89664 c 0.05978,-0.21918 0.11955,-0.43835 0.16937,-0.66749 0.03985,-0.16937 0.11955,-0.45829 0.12951,-0.49814 0.14944,-0.30884 0.67746,-1.21544 1.62391,-1.21544 0.44832,0 0.53798,0.36862 0.53798,0.69739 0,0.61768 -0.48817,1.8929 -0.64757,2.32129 -0.08966,0.229142 -0.09962,0.348694 -0.09962,0.458283 0,0.468244 0.34869,0.816936 0.81693,0.816936 0.93649,0 1.30511,-1.454549 1.30511,-1.534249 0,-0.09962 -0.08967,-0.09962 -0.11955,-0.09962 -0.09963,0 -0.09963,0.02988 -0.14944,0.17932 -0.19926,0.677463 -0.52802,1.235371 -1.01619,1.235371 -0.16937,0 -0.23911,-0.099626 -0.23911,-0.328767 0,-0.249066 0.08967,-0.48817 0.17933,-0.707344 0.18929,-0.52802 0.60772,-1.62391 0.60772,-2.19178 0,-0.6675 -0.42839,-1.06601 -1.1457,-1.06601 -0.89664,0 -1.38481,0.63761 -1.55417,0.86675 -0.04982,-0.55791 -0.45828,-0.86675 -0.91657,-0.86675 -0.45829,0 -0.647568,0.38855 -0.747194,0.56787 -0.159402,0.33873 -0.298879,0.92653 -0.298879,0.96638 0,0.09963 0.099626,0.09963 0.119551,0.09963 0.099627,0 0.109589,-0.00997 0.169365,-0.22914 0.169365,-0.70735 0.368618,-1.18556 0.727277,-1.18556 0.19925,0 0.30884,0.12952 0.30884,0.45828 0,0.20922 -0.02989,0.31881 -0.1594,0.83686 z"
         id="equation_06_00" />
      <path
         style="stroke-linecap:butt;stroke-linejoin:round"
         inkscape:connector-curvature="0"
         d="m 2.33624,-4.43537 c 0,-0.18829 -0.01395,-0.19527 -0.20922,-0.19527 -0.44632,0.43936 -1.08094,0.44633 -1.366871,0.44633 v 0.25106 c 0.167373,0 0.627651,0 1.011211,-0.19527 v 3.556664 c 0,0.230137 0,0.320797 -0.69739,0.320797 H 0.808966 V 0 c 0.12553,-0.00697385 0.983314,-0.0278954 1.241344,-0.0278954 0.21619,0 1.0949,0.02092155 1.24832,0.0278954 V -0.251059 H 3.03362 c -0.69738,0 -0.69738,-0.09066 -0.69738,-0.320797 z"
         id="equation_06_01" />
    </defs>
    <g
       style="stroke-linecap:butt;stroke-linejoin:round"
       id="equation_06_g">
      <use
         height="100%"
         width="100%"
         style="stroke-linecap:butt;stroke-linejoin:round"
         x="76.712303"
         xlink:href="#equation_06_00"
         y="62.764599"
         id="use2834" />
      <use
         height="100%"
         width="100%"
         style="stroke-linecap:butt;stroke-linejoin:round"
         x="82.692299"
         xlink:href="#equation_06_01"
         y="64.259003"
         id="use2836" />
    </g>
  </g>
  <g
     title="$n_{i}$"
     style="fill:#000000;stroke-linecap:butt;stroke-linejoin:round"
     id="equation_05"
     transform="translate(76.489202,41.90739)">
    <defs
       id="defs3139">
      <path
         id="equation_05_00"
         d="m 2.25953,-4.35866 c 0,-0.11158 -0.08369,-0.265 -0.27896,-0.265 -0.18829,0 -0.39053,0.18132 -0.39053,0.38356 0,0.11856 0.09066,0.26501 0.27895,0.26501 0.20224,0 0.39054,-0.19527 0.39054,-0.38357 z m -1.422668,3.54272 c -0.027896,0.09066 -0.062765,0.174346 -0.062765,0.292901 0,0.327771 0.278953,0.5927775 0.662513,0.5927775 0.69739,0 1.00424,-0.9623915 1.00424,-1.0669985 0,-0.09066 -0.09066,-0.09066 -0.11158,-0.09066 -0.09764,0 -0.10461,0.04184 -0.13251,0.118555 -0.1604,0.557908 -0.46725,0.843836 -0.73923,0.843836 -0.13947,0 -0.17434,-0.09066 -0.17434,-0.244085 0,-0.160398 0.04881,-0.292902 0.11158,-0.446326 0.06974,-0.18829 0.14645,-0.37659 0.22316,-0.55791 0.06277,-0.16737 0.31383,-0.80199 0.34172,-0.88568 0.02092,-0.06974 0.04184,-0.15342 0.04184,-0.22316 0,-0.32777 -0.27895,-0.59278 -0.66251,-0.59278 -0.690412,0 -1.011209,0.94845 -1.011209,1.067 0,0.09066 0.097634,0.09066 0.118555,0.09066 0.097634,0 0.104608,-0.03487 0.12553,-0.11158 0.18132,-0.59975 0.488164,-0.85081 0.746204,-0.85081 0.11158,0 0.17434,0.05579 0.17434,0.24409 0,0.16039 -0.04184,0.265 -0.21619,0.69738 z"
         inkscape:connector-curvature="0"
         style="stroke-linecap:butt;stroke-linejoin:round" />
      <path
         id="equation_05_01"
         d="m 0.876712,-0.587796 c -0.029888,0.14944 -0.089663,0.378581 -0.089663,0.428394 0,0.1793273 0.139477,0.268991 0.288921,0.268991 0.11955,0 0.29887,-0.0797011 0.36861,-0.278954 C 1.45455,-0.18929 1.5741,-0.657534 1.63387,-0.9066 l 0.21918,-0.89664 c 0.05978,-0.21918 0.11955,-0.43835 0.16937,-0.66749 0.03985,-0.16937 0.11955,-0.45829 0.12951,-0.49814 0.14944,-0.30884 0.67746,-1.21544 1.62391,-1.21544 0.44832,0 0.53798,0.36862 0.53798,0.69739 0,0.61768 -0.48817,1.8929 -0.64757,2.32129 -0.08966,0.229142 -0.09962,0.348694 -0.09962,0.458283 0,0.468244 0.34869,0.816936 0.81693,0.816936 0.93649,0 1.30511,-1.454549 1.30511,-1.534249 0,-0.09962 -0.08967,-0.09962 -0.11955,-0.09962 -0.09963,0 -0.09963,0.02988 -0.14944,0.17932 -0.19926,0.677463 -0.52802,1.235371 -1.01619,1.235371 -0.16937,0 -0.23911,-0.099626 -0.23911,-0.328767 0,-0.249066 0.08967,-0.48817 0.17933,-0.707344 0.18929,-0.52802 0.60772,-1.62391 0.60772,-2.19178 0,-0.6675 -0.42839,-1.06601 -1.1457,-1.06601 -0.89664,0 -1.38481,0.63761 -1.55417,0.86675 -0.04982,-0.55791 -0.45828,-0.86675 -0.91657,-0.86675 -0.45829,0 -0.647568,0.38855 -0.747194,0.56787 -0.159402,0.33873 -0.298879,0.92653 -0.298879,0.96638 0,0.09963 0.099626,0.09963 0.119551,0.09963 0.099627,0 0.109589,-0.00997 0.169365,-0.22914 0.169365,-0.70735 0.368618,-1.18556 0.727277,-1.18556 0.19925,0 0.30884,0.12952 0.30884,0.45828 0,0.20922 -0.02989,0.31881 -0.1594,0.83686 z"
         inkscape:connector-curvature="0"
         style="stroke-linecap:butt;stroke-linejoin:round" />
    </defs>
    <g
       id="equation_05_g"
       style="stroke-linecap:butt;stroke-linejoin:round">
      <use
         id="use3141"
         y="62.764599"
         xlink:href="#equation_05_01"
         x="76.712303"
         style="stroke-linecap:butt;stroke-linejoin:round"
         width="100%"
         height="100%" />
      <use
         id="use3143"
         y="64.259003"
         xlink:href="#equation_05_00"
         x="82.692299"
         style="stroke-linecap:butt;stroke-linejoin:round"
         width="100%"
         height="100%" />
    </g>
  </g>
  <g
     id="equation_07"
     style="fill:#000000;stroke-linecap:butt;stroke-linejoin:round"
     title="$Water Level:H$"
     transform="translate(47.089197,-48.392619)">
    <defs
       id="defs3457">
      <path
         d="m 7.60149,-6.03736 c 0.08967,-0.35865 0.10959,-0.45828 0.83687,-0.45828 0.25902,0 0.33873,0 0.33873,-0.19925 0,-0.10959 -0.10959,-0.10959 -0.13948,-0.10959 -0.27895,0 -0.99627,0.02988 -1.27522,0.02988 -0.28892,0 -0.99626,-0.02988 -1.28518,-0.02988 -0.0797,0 -0.18929,0 -0.18929,0.19925 0,0.10959 0.08966,0.10959 0.27895,0.10959 0.01993,0 0.20922,0 0.37858,0.01992 0.17933,0.01993 0.269,0.02989 0.269,0.15941 0,0.03985 -0.00997,0.05977 -0.03985,0.18929 L 6.17684,-3.69614 H 3.13823 l 0.5878,-2.34122 c 0.08966,-0.35865 0.11955,-0.45828 0.83686,-0.45828 0.25903,0 0.33873,0 0.33873,-0.19925 0,-0.10959 -0.10959,-0.10959 -0.13948,-0.10959 -0.27895,0 -0.99626,0.02988 -1.27522,0.02988 -0.28891,0 -0.99626,-0.02988 -1.28518,-0.02988 -0.0797,0 -0.18929,0 -0.18929,0.19925 0,0.10959 0.08967,0.10959 0.27896,0.10959 0.01992,0 0.20921,0 0.37858,0.01992 0.17933,0.01993 0.26899,0.02989 0.26899,0.15941 0,0.03985 -0.00996,0.06973 -0.03985,0.18929 l -1.335,5.349934 c -0.09962,0.388543 -0.11955,0.468244 -0.906596,0.468244 -0.179327,0 -0.268991,0 -0.268991,0.199253 C 0.388543,0 0.508095,0 0.52802,0 c 0.278954,0 0.9863,-0.0298879 1.26526,-0.0298879 0.20921,0 0.42839,0.0099626 0.6376,0.0099626 C 2.65006,-0.0199253 2.86924,0 3.07846,0 c 0.0797,0 0.19925,0 0.19925,-0.199253 0,-0.109589 -0.08967,-0.109589 -0.27896,-0.109589 -0.36861,0 -0.64757,0 -0.64757,-0.179327 0,-0.059776 0.01993,-0.109589 0.02989,-0.169365 L 3.05853,-3.3873 h 3.03861 c -0.41844,1.6538 -0.64758,2.600251 -0.68743,2.749691 -0.09962,0.318805 -0.28891,0.328767 -0.9066,0.328767 -0.14944,0 -0.2391,0 -0.2391,0.199253 C 4.26401,0 4.38356,0 4.40349,0 c 0.27895,0 0.9863,-0.0298879 1.26525,-0.0298879 0.20922,0 0.4284,0.0099626 0.63761,0.0099626 C 6.52553,-0.0199253 6.74471,0 6.95392,0 c 0.0797,0 0.19926,0 0.19926,-0.199253 0,-0.109589 -0.08967,-0.109589 -0.27896,-0.109589 -0.36862,0 -0.64757,0 -0.64757,-0.179327 0,-0.059776 0.01993,-0.109589 0.02989,-0.169365 z"
         id="equation_07_00"
         inkscape:connector-curvature="0"
         style="stroke-linecap:butt;stroke-linejoin:round" />
      <path
         d="m 3.72603,-6.0274 c 0.08966,-0.35865 0.11955,-0.46824 1.05604,-0.46824 0.29888,0 0.37858,0 0.37858,-0.18929 0,-0.11955 -0.10959,-0.11955 -0.1594,-0.11955 -0.32877,0 -1.14571,0.02988 -1.47448,0.02988 -0.29887,0 -1.02615,-0.02988 -1.32503,-0.02988 -0.06974,0 -0.18929,0 -0.18929,0.19925 0,0.10959 0.08967,0.10959 0.27896,0.10959 0.01992,0 0.20921,0 0.37858,0.01992 0.17933,0.01993 0.26899,0.02989 0.26899,0.15941 0,0.03985 -0.00996,0.06973 -0.03985,0.18929 l -1.335,5.349934 c -0.09962,0.388543 -0.11955,0.468244 -0.906596,0.468244 -0.169365,0 -0.268991,0 -0.268991,0.199253 C 0.388543,0 0.478207,0 0.657534,0 H 5.27024 C 5.50934,0 5.5193,0 5.57908,-0.169365 L 6.36613,-2.3213 c 0.03985,-0.10958 0.03985,-0.12951 0.03985,-0.13947 0,-0.03985 -0.02989,-0.10959 -0.11955,-0.10959 -0.08966,0 -0.09963,0.04981 -0.16937,0.20921 -0.33873,0.91657 -0.77708,2.052308 -2.50062,2.052308 H 2.67995 c -0.13948,0 -0.1594,0 -0.21918,-0.009962 -0.09962,-0.009963 -0.12951,-0.019926 -0.12951,-0.099627 0,-0.029888 0,-0.049813 0.04981,-0.229141 z"
         id="equation_07_01"
         inkscape:connector-curvature="0"
         style="stroke-linecap:butt;stroke-linejoin:round" />
      <path
         d="m 9.13574,-5.64882 c 0.24907,-0.43835 0.48817,-0.79701 1.11586,-0.84682 0.0896,-0.00996 0.1892,-0.00996 0.1892,-0.19925 0,-0.03985 -0.0398,-0.10959 -0.1195,-0.10959 -0.2391,0 -0.51806,0.02988 -0.76713,0.02988 -0.33873,0 -0.70735,-0.02988 -1.03611,-0.02988 -0.05978,0 -0.18929,0 -0.18929,0.18929 0,0.10959 0.08966,0.11955 0.14944,0.11955 0.2391,0.00996 0.58779,0.08966 0.58779,0.38854 0,0.10959 -0.04981,0.18929 -0.12951,0.32877 L 6.24658,-1.08593 5.87796,-6.0274 C 5.868,-6.22665 5.84807,-6.48568 6.57534,-6.49564 c 0.16937,0 0.26899,0 0.26899,-0.19925 0,-0.09963 -0.10959,-0.10959 -0.14944,-0.10959 -0.3985,0 -0.81693,0.02988 -1.21544,0.02988 -0.22914,0 -0.81693,-0.02988 -1.04608,-0.02988 -0.05977,0 -0.18929,0 -0.18929,0.19925 0,0.10959 0.09963,0.10959 0.23911,0.10959 0.43835,0 0.50809,0.05977 0.52802,0.24906 l 0.05977,0.76713 -2.52054,4.39352 -0.37858,-5.05106 c 0,-0.11955 0,-0.34869 0.75716,-0.35865 0.09962,0 0.20921,0 0.20921,-0.19925 0,-0.10959 -0.11955,-0.10959 -0.13948,-0.10959 -0.3985,0 -0.81693,0.02988 -1.2254,0.02988 -0.34869,0 -0.70735,-0.02988 -1.046077,-0.02988 -0.049813,0 -0.179328,0 -0.179328,0.18929 0,0.11955 0.089664,0.11955 0.249066,0.11955 0.498129,0 0.508099,0.08966 0.528019,0.36862 l 0.44832,6.0871694 c 0.00996,0.1793276 0.01993,0.2590286 0.1594,0.2590286 0.11955,0 0.14944,-0.059776 0.23911,-0.20921536 L 5.10087,-5.07098 5.46949,-0.0398506 c 0.01992,0.2092156 0.03985,0.2590286 0.1594,0.2590286 0.12952,0 0.18929,-0.099626 0.23911,-0.1892901 z"
         id="equation_07_02"
         inkscape:connector-curvature="0"
         style="stroke-linecap:butt;stroke-linejoin:round" />
      <path
         d="M 3.71606,-3.76588 C 3.53674,-4.1345 3.24782,-4.40349 2.7995,-4.40349 c -1.16563,0 -2.400994,1.46451 -2.400994,2.91906 0,0.936485 0.547945,1.594019 1.325034,1.594019 0.19925,0 0.69738,-0.0398505 1.29514,-0.747198 0.0797,0.418431 0.42839,0.747198 0.9066,0.747198 0.34869,0 0.57783,-0.229141 0.73724,-0.547945 0.16936,-0.358655 0.29887,-0.966374 0.29887,-0.986304 0,-0.09962 -0.08966,-0.09962 -0.11955,-0.09962 -0.09962,0 -0.10959,0.03985 -0.13947,0.17932 -0.16937,0.647575 -0.3487,1.235371 -0.75716,1.235371 -0.269,0 -0.29888,-0.259029 -0.29888,-0.458281 0,-0.219179 0.01992,-0.29888 0.12951,-0.73724 0.10959,-0.41843 0.12951,-0.51805 0.21918,-0.89663 l 0.35865,-1.39477 c 0.06974,-0.27896 0.06974,-0.29888 0.06974,-0.33873 0,-0.16937 -0.11955,-0.26899 -0.28891,-0.26899 -0.23911,0 -0.38855,0.21917 -0.41844,0.43835 z m -0.64757,2.58033 c -0.04981,0.17932 -0.04981,0.199249 -0.19925,0.368614 -0.43836,0.547945 -0.84682,0.707347 -1.12578,0.707347 -0.49813,0 -0.63761,-0.547945 -0.63761,-0.936491 0,-0.49813 0.31881,-1.72353 0.54795,-2.18182 0.30884,-0.58779 0.75716,-0.95641 1.15566,-0.95641 0.64758,0 0.78705,0.81694 0.78705,0.87671 0,0.05977 -0.01992,0.11956 -0.02988,0.16937 z"
         id="equation_07_03"
         inkscape:connector-curvature="0"
         style="stroke-linecap:butt;stroke-linejoin:round" />
      <path
         d="m 1.86301,-2.30137 c 0.28892,0 1.02616,-0.01993 1.52429,-0.22914 0.69738,-0.29888 0.7472,-0.88668 0.7472,-1.02615 0,-0.43836 -0.37858,-0.84683 -1.06601,-0.84683 -1.10585,0 -2.610209,0.96638 -2.610209,2.70984 0,1.01619 0.587799,1.803239 1.564139,1.803239 1.42465,0 2.26152,-1.05604 2.26152,-1.175589 0,-0.05978 -0.05978,-0.12952 -0.11956,-0.12952 -0.04981,0 -0.06973,0.01993 -0.12951,0.09963 -0.78705,0.986301 -1.87298,0.986301 -1.99253,0.986301 -0.77708,0 -0.86675,-0.836862 -0.86675,-1.155671 0,-0.11955 0.00996,-0.42839 0.1594,-1.03611 z M 1.39477,-2.52055 c 0.38854,-1.51432 1.41469,-1.66376 1.67372,-1.66376 0.46825,0 0.73724,0.28892 0.73724,0.62765 0,1.03611 -1.59402,1.03611 -2.00249,1.03611 z"
         id="equation_07_04"
         inkscape:connector-curvature="0"
         style="stroke-linecap:butt;stroke-linejoin:round" />
      <path
         d="m 2.57036,-6.80448 c 0,-0.00997 0,-0.10959 -0.12951,-0.10959 -0.22914,0 -0.95642,0.0797 -1.21545,0.09962 -0.0797,0.00997 -0.18929,0.01993 -0.18929,0.20922 0,0.10959 0.09963,0.10959 0.24907,0.10959 0.47821,0 0.48817,0.08966 0.48817,0.16936 L 1.74346,-6.12702 0.488169,-1.1457 c -0.029888,0.10959 -0.049813,0.179324 -0.049813,0.338726 0,0.567871 0.438356,0.916563 0.906604,0.916563 0.32876,0 0.57783,-0.1992528 0.74719,-0.557908 0.17933,-0.37858 0.29888,-0.956411 0.29888,-0.976341 0,-0.09962 -0.08966,-0.09962 -0.11955,-0.09962 -0.09962,0 -0.10959,0.03985 -0.13948,0.17932 -0.16936,0.647575 -0.35865,1.235371 -0.75716,1.235371 -0.29887,0 -0.29887,-0.318805 -0.29887,-0.458281 0,-0.239104 0.00996,-0.288917 0.05977,-0.47821 z"
         id="equation_07_05"
         inkscape:connector-curvature="0"
         style="stroke-linecap:butt;stroke-linejoin:round" />
      <path
         d="m 0.876712,-0.587796 c -0.029888,0.14944 -0.089663,0.378581 -0.089663,0.428394 0,0.1793273 0.139477,0.268991 0.288921,0.268991 0.11955,0 0.29887,-0.0797011 0.36861,-0.278954 0.01993,-0.03985 0.35866,-1.394765 0.39851,-1.574095 0.0797,-0.32877 0.25903,-1.02615 0.3188,-1.29515 0.03985,-0.12951 0.31881,-0.59775 0.55791,-0.81693 0.0797,-0.06974 0.36862,-0.32877 0.79701,-0.32877 0.25903,0 0.40847,0.11955 0.41843,0.11955 -0.29888,0.04982 -0.51805,0.28892 -0.51805,0.54795 0,0.1594 0.10958,0.34869 0.37858,0.34869 0.269,0 0.54794,-0.22914 0.54794,-0.5878 0,-0.34869 -0.3188,-0.64757 -0.8269,-0.64757 -0.64757,0 -1.08593,0.48817 -1.27522,0.76713 -0.0797,-0.44832 -0.43835,-0.76713 -0.9066,-0.76713 -0.458278,0 -0.647568,0.38855 -0.737232,0.56787 -0.179327,0.33873 -0.308841,0.93649 -0.308841,0.96638 0,0.09963 0.099626,0.09963 0.119551,0.09963 0.099627,0 0.109589,-0.00997 0.169365,-0.22914 0.169365,-0.70735 0.368618,-1.18556 0.727277,-1.18556 0.16936,0 0.30884,0.0797 0.30884,0.45828 0,0.20922 -0.02989,0.31881 -0.1594,0.83686 z"
         id="equation_07_06"
         inkscape:connector-curvature="0"
         style="stroke-linecap:butt;stroke-linejoin:round" />
      <path
         d="m 2.0523,-3.98506 h 0.93649 c 0.19925,0 0.29888,0 0.29888,-0.19925 0,-0.10959 -0.09963,-0.10959 -0.27895,-0.10959 H 2.132 c 0.35866,-1.41469 0.40847,-1.61395 0.40847,-1.67372 0,-0.16937 -0.11955,-0.26899 -0.28891,-0.26899 -0.02989,0 -0.30885,0.00996 -0.39851,0.35865 L 1.46451,-4.2939 H 0.52802 c -0.199253,0 -0.298879,0 -0.298879,0.18929 0,0.11955 0.079701,0.11955 0.278954,0.11955 H 1.38481 c -0.717313,2.82939 -0.757164,2.998759 -0.757164,3.178086 0,0.537983 0.378584,0.916563 0.916564,0.916563 1.01619,0 1.58406,-1.454549 1.58406,-1.534249 0,-0.09962 -0.0797,-0.09962 -0.11955,-0.09962 -0.08967,0 -0.09963,0.02988 -0.14944,0.13947 -0.4284,1.036118 -0.95642,1.275221 -1.29515,1.275221 -0.20921,0 -0.30884,-0.129514 -0.30884,-0.458281 0,-0.239104 0.01993,-0.308842 0.05978,-0.47821 z"
         id="equation_07_07"
         inkscape:connector-curvature="0"
         style="stroke-linecap:butt;stroke-linejoin:round" />
      <path
         d="m 4.66252,-3.7061 c 0,-0.53798 -0.25903,-0.69739 -0.43836,-0.69739 -0.24907,0 -0.48817,0.25903 -0.48817,0.47821 0,0.12951 0.04981,0.18929 0.1594,0.29888 0.20922,0.19925 0.33873,0.45828 0.33873,0.81694 0,0.41843 -0.60772,2.699871 -1.77335,2.699871 -0.50809,0 -0.73723,-0.348692 -0.73723,-0.86675 0,-0.557911 0.26899,-1.285181 0.57783,-2.112081 0.06974,-0.16936 0.11955,-0.30884 0.11955,-0.49813 0,-0.44832 -0.3188,-0.81694 -0.81693,-0.81694 -0.936493,0 -1.315073,1.44459 -1.315073,1.53425 0,0.09963 0.099626,0.09963 0.119551,0.09963 0.099627,0 0.109589,-0.01993 0.159402,-0.17933 0.288917,-1.00623 0.71731,-1.23537 1.00623,-1.23537 0.0797,0 0.24906,0 0.24906,0.31881 0,0.24906 -0.09962,0.51805 -0.16936,0.69738 -0.43836,1.15567 -0.56787,1.61395 -0.56787,2.04234 0,1.0759668 0.87671,1.235369 1.33499,1.235369 1.67373,0 2.2416,-3.297629 2.2416,-3.815689 z"
         id="equation_07_08"
         inkscape:connector-curvature="0"
         style="stroke-linecap:butt;stroke-linejoin:round" />
      <path
         d="m 1.91283,-3.76588 c 0,-0.28891 -0.23911,-0.52802 -0.52802,-0.52802 -0.28891,0 -0.528023,0.23911 -0.528023,0.52802 0,0.28891 0.239103,0.52802 0.528023,0.52802 0.28892,0 0.52802,-0.2391 0.52802,-0.52802 z m 0,3.23786 c 0,-0.288916 -0.23911,-0.52802 -0.52802,-0.52802 -0.28891,0 -0.528023,0.239104 -0.528023,0.52802 C 0.856787,-0.239104 1.09589,0 1.38481,0 1.67373,0 1.91283,-0.239103 1.91283,-0.52802 Z"
         id="equation_07_09"
         inkscape:connector-curvature="0"
         style="stroke-linecap:butt;stroke-linejoin:round" />
    </defs>
    <g
       id="equation_07_g"
       style="stroke-linecap:butt;stroke-linejoin:round">
      <use
         x="76.712303"
         xlink:href="#equation_07_02"
         y="62.764599"
         id="use3459"
         style="stroke-linecap:butt;stroke-linejoin:round"
         width="100%"
         height="100%" />
      <use
         x="87.505203"
         xlink:href="#equation_07_03"
         y="62.764599"
         id="use3461"
         style="stroke-linecap:butt;stroke-linejoin:round"
         width="100%"
         height="100%" />
      <use
         x="92.7714"
         xlink:href="#equation_07_07"
         y="62.764599"
         id="use3463"
         style="stroke-linecap:butt;stroke-linejoin:round"
         width="100%"
         height="100%" />
      <use
         x="96.369003"
         xlink:href="#equation_07_04"
         y="62.764599"
         id="use3465"
         style="stroke-linecap:butt;stroke-linejoin:round"
         width="100%"
         height="100%" />
      <use
         x="101.008"
         xlink:href="#equation_07_06"
         y="62.764599"
         id="use3467"
         style="stroke-linecap:butt;stroke-linejoin:round"
         width="100%"
         height="100%" />
      <use
         x="105.779"
         xlink:href="#equation_07_01"
         y="62.764599"
         id="use3469"
         style="stroke-linecap:butt;stroke-linejoin:round"
         width="100%"
         height="100%" />
      <use
         x="112.56"
         xlink:href="#equation_07_04"
         y="62.764599"
         id="use3471"
         style="stroke-linecap:butt;stroke-linejoin:round"
         width="100%"
         height="100%" />
      <use
         x="117.198"
         xlink:href="#equation_07_08"
         y="62.764599"
         id="use3473"
         style="stroke-linecap:butt;stroke-linejoin:round"
         width="100%"
         height="100%" />
      <use
         x="122.385"
         xlink:href="#equation_07_04"
         y="62.764599"
         id="use3475"
         style="stroke-linecap:butt;stroke-linejoin:round"
         width="100%"
         height="100%" />
      <use
         x="127.024"
         xlink:href="#equation_07_05"
         y="62.764599"
         id="use3477"
         style="stroke-linecap:butt;stroke-linejoin:round"
         width="100%"
         height="100%" />
      <use
         x="132.96001"
         xlink:href="#equation_07_09"
         y="62.764599"
         id="use3479"
         style="stroke-linecap:butt;stroke-linejoin:round"
         width="100%"
         height="100%" />
      <use
         x="138.495"
         xlink:href="#equation_07_00"
         y="62.764599"
         id="use3481"
         style="stroke-linecap:butt;stroke-linejoin:round"
         width="100%"
         height="100%" />
    </g>
  </g>
</svg>
